<svg xmlns="http://www.w3.org/2000/svg" xmlns:xlink="http://www.w3.org/1999/xlink" width="104.21" height="81.09"><defs><path id="a" d="m1.266-.766 1.062-1.03c1.547-1.376 2.14-1.907 2.14-2.907 0-1.14-.89-1.938-2.109-1.938C1.234-6.64.5-5.719.5-4.828c0 .547.5.547.531.547.172 0 .516-.11.516-.532a.513.513 0 0 0-.531-.515c-.079 0-.094 0-.125.016.218-.657.765-1.016 1.343-1.016.907 0 1.329.812 1.329 1.625 0 .797-.485 1.578-1.047 2.203L.609-.375C.5-.265.5-.235.5 0h3.703l.266-1.734h-.235C4.172-1.437 4.11-1 4-.844c-.062.078-.719.078-.937.078Zm0 0"/><path id="b" d="M2.89-3.516c.813-.265 1.391-.953 1.391-1.75 0-.812-.875-1.375-1.828-1.375-1 0-1.765.594-1.765 1.36 0 .328.218.515.515.515.297 0 .5-.218.5-.515 0-.485-.469-.485-.61-.485.298-.5.954-.625 1.313-.625.422 0 .969.22.969 1.11 0 .125-.031.703-.281 1.14-.297.485-.64.516-.89.516a3.29 3.29 0 0 1-.392.031c-.078.016-.14.031-.14.125 0 .11.062.11.234.11h.438c.812 0 1.187.672 1.187 1.656 0 1.36-.687 1.64-1.125 1.64-.437 0-1.187-.171-1.531-.75.344.047.656-.171.656-.546a.537.537 0 0 0-.547-.563c-.25 0-.562.14-.562.578C.422-.437 1.344.22 2.437.22c1.22 0 2.126-.906 2.126-1.922 0-.813-.641-1.594-1.672-1.813Zm0 0"/><path id="d" d="M2.938-1.64v.859c0 .36-.032.469-.766.469h-.203V0c.406-.031.922-.031 1.344-.031.421 0 .937 0 1.359.031v-.312h-.219c-.734 0-.75-.11-.75-.47v-.859h.985v-.312h-.985v-4.531c0-.203 0-.266-.172-.266-.078 0-.11 0-.187.125L.28-1.953v.312Zm.046-.313H.563l2.421-3.719Zm0 0"/><path id="e" d="M4.469-2c0-1.187-.813-2.187-1.89-2.187-.47 0-.907.156-1.267.515v-1.953c.204.063.532.125.844.125 1.235 0 1.938-.906 1.938-1.031 0-.063-.032-.11-.11-.11 0 0-.03 0-.078.032a3.22 3.22 0 0 1-1.36.297c-.39 0-.858-.079-1.327-.282-.078-.031-.094-.031-.11-.031C1-6.625 1-6.547 1-6.391v2.954c0 .171 0 .25.14.25.079 0 .094-.016.141-.079.11-.156.469-.703 1.282-.703.515 0 .765.453.843.64.156.376.188.75.188 1.25 0 .36 0 .954-.25 1.376-.235.39-.61.64-1.063.64-.719 0-1.297-.53-1.469-1.109.032 0 .063.016.172.016.329 0 .5-.25.5-.485 0-.25-.171-.5-.5-.5-.14 0-.484.079-.484.532C.5-.75 1.188.219 2.297.219 3.453.219 4.469-.734 4.469-2Zm0 0"/><path id="f" d="M6.844-3.266c.156 0 .343 0 .343-.187 0-.203-.187-.203-.328-.203H.891c-.141 0-.328 0-.328.203 0 .187.187.187.328.187Zm.015 1.938c.141 0 .329 0 .329-.203 0-.188-.188-.188-.344-.188H.89c-.141 0-.328 0-.328.188 0 .203.187.203.328.203Zm0 0"/><path id="h" d="M2.938-6.375c0-.25 0-.266-.235-.266C2.078-6 1.203-6 .891-6v.313c.203 0 .78 0 1.297-.266v5.172c0 .36-.032.469-.922.469H.953V0c.344-.031 1.203-.031 1.61-.031.39 0 1.265 0 1.609.031v-.312h-.313c-.906 0-.921-.11-.921-.47Zm0 0"/><path id="i" d="M4.578-3.187c0-.797-.047-1.594-.39-2.329C3.734-6.484 2.906-6.64 2.5-6.64c-.61 0-1.328.266-1.75 1.188-.312.687-.36 1.469-.36 2.266 0 .75.032 1.64.454 2.406a1.83 1.83 0 0 0 1.64 1c.532 0 1.297-.203 1.735-1.156.312-.688.36-1.47.36-2.25ZM2.484 0c-.39 0-.984-.25-1.156-1.203-.11-.594-.11-1.516-.11-2.11 0-.64 0-1.296.079-1.828.187-1.187.937-1.28 1.187-1.28.329 0 .985.187 1.172 1.171.11.563.11 1.313.11 1.938 0 .75 0 1.421-.11 2.062C3.5-.297 2.937 0 2.484 0Zm0 0"/><path id="c" d="M4.516-4.64a.643.643 0 0 0-.641-.641.643.643 0 0 0-.64.64c0 .313.28.625.64.625a.64.64 0 0 0 .64-.625Zm0 4.296a.64.64 0 0 0-1.282 0c0 .328.282.64.641.64.375 0 .64-.312.64-.64ZM.89-2.687c-.157 0-.344 0-.344.187 0 .203.187.203.344.203h5.968c.172 0 .344 0 .344-.203 0-.187-.172-.187-.344-.187Zm0 0"/><path id="g" d="M3.875-2.766 1.891-4.75c-.125-.125-.141-.14-.22-.14a.197.197 0 0 0-.202.202c0 .063.015.079.125.188l2 2-2 2.016c-.11.109-.125.125-.125.187 0 .125.093.203.203.203.078 0 .094-.015.219-.14L3.875-2.22 5.938-.156a.236.236 0 0 0 .14.062c.125 0 .203-.078.203-.203 0-.016 0-.047-.031-.11C6.234-.421 4.656-1.983 4.156-2.5l1.828-1.812c.047-.063.204-.188.25-.25 0-.016.047-.063.047-.125 0-.125-.078-.204-.203-.204-.078 0-.11.032-.219.141Zm0 0"/><path id="j" d="M2.547 0v-.312c-.672 0-.781 0-.781-.438v-6.172l-1.438.11v.312c.703 0 .781.063.781.563V-.75c0 .438-.109.438-.78.438V0l1.109-.031Zm0 0"/><path id="k" d="M4.813-.89v-.563h-.25v.562c0 .579-.25.641-.36.641-.328 0-.36-.453-.36-.5v-1.984c0-.422 0-.813-.359-1.188-.39-.39-.89-.547-1.375-.547-.812 0-1.5.469-1.5 1.125 0 .297.204.469.454.469a.448.448 0 0 0 .468-.453c0-.125-.062-.453-.515-.453.265-.36.765-.469 1.078-.469.484 0 1.062.39 1.062 1.281v.36c-.515.03-1.219.062-1.844.359-.75.344-1 .86-1 1.297 0 .812.97 1.062 1.594 1.062.672 0 1.125-.406 1.313-.859.047.39.312.813.781.813.203 0 .813-.141.813-.954Zm-1.657-.5c0 .937-.719 1.28-1.172 1.28-.484 0-.89-.343-.89-.843 0-.547.406-1.375 2.062-1.438Zm0 0"/><path id="l" d="M3.563-6.328c0-.375-.376-.703-.907-.703-.687 0-1.547.531-1.547 1.593v1.141H.33v.313h.78V-.75c0 .438-.109.438-.765.438V0l1.125-.031c.406 0 .875 0 1.265.031v-.312h-.203c-.734 0-.75-.11-.75-.47v-3.202h1.125v-.313H1.75v-1.156c0-.875.469-1.36.906-1.36.031 0 .188 0 .328.079a.443.443 0 0 0-.296.422c0 .218.156.421.437.421s.438-.203.438-.437Zm0 0"/><path id="m" d="M3.625-3.797c0-.312-.312-.61-.734-.61-.735 0-1.094.673-1.22 1.095v-1.094l-1.39.11v.312c.703 0 .782.062.782.562V-.75c0 .438-.11.438-.782.438V0l1.14-.031c.391 0 .86 0 1.267.031v-.312h-.22c-.734 0-.75-.11-.75-.47v-1.53c0-.985.423-1.876 1.173-1.876.062 0 .093 0 .109.016-.031 0-.234.125-.234.39 0 .266.218.423.437.423a.421.421 0 0 0 .422-.438Zm0 0"/><path id="n" d="M4.14-1.187c0-.094-.109-.094-.14-.094-.078 0-.11.031-.125.093C3.594-.265 2.938-.14 2.578-.14c-.531 0-1.406-.421-1.406-2.03 0-1.626.812-2.048 1.344-2.048.093 0 .718.016 1.062.375-.406.031-.469.328-.469.453 0 .266.188.454.454.454.265 0 .468-.157.468-.47 0-.671-.765-1.062-1.531-1.062C1.25-4.469.344-3.39.344-2.156c0 1.281.984 2.265 2.14 2.265 1.329 0 1.657-1.203 1.657-1.296Zm0 0"/><path id="o" d="M3.313-1.234v-.563h-.25v.547c0 .734-.297 1.11-.672 1.11-.672 0-.672-.907-.672-1.079v-2.765h1.437v-.313H1.72v-1.828h-.25c0 .813-.297 1.875-1.281 1.922v.219h.843v2.75c0 1.218.938 1.343 1.297 1.343.703 0 .985-.703.985-1.343Zm0 0"/><path id="p" d="M2.469 0v-.312c-.672 0-.703-.047-.703-.438v-3.656l-1.391.11v.312c.64 0 .734.062.734.547V-.75c0 .438-.109.438-.78.438V0l1.093-.031c.36 0 .703.015 1.047.031Zm-.563-6.016a.523.523 0 0 0-.515-.53.54.54 0 0 0-.547.53c0 .266.234.516.531.516a.513.513 0 0 0 .531-.516Zm0 0"/><path id="q" d="M4.688-2.14c0-1.266-.985-2.329-2.188-2.329C1.25-4.469.281-3.375.281-2.14A2.22 2.22 0 0 0 2.484.11c1.204 0 2.204-.984 2.204-2.25Zm-.813-.079c0 .36 0 .906-.219 1.344-.234.453-.672.734-1.156.734-.437 0-.875-.203-1.14-.671-.25-.438-.25-1.047-.25-1.407 0-.39 0-.922.234-1.36a1.347 1.347 0 0 1 1.14-.671c.438 0 .86.219 1.125.656.266.422.266 1 .266 1.375Zm0 0"/><path id="r" d="M5.328 0v-.312c-.516 0-.766 0-.766-.297v-1.907c0-.859 0-1.156-.312-1.515-.14-.172-.469-.375-1.047-.375-.734 0-1.203.422-1.484 1.047v-1.047l-1.406.11v.312c.703 0 .78.062.78.562V-.75c0 .438-.109.438-.78.438V0l1.14-.031L2.563 0v-.312c-.672 0-.782 0-.782-.438v-1.844c0-1.031.719-1.594 1.344-1.594.64 0 .75.532.75 1.11V-.75c0 .438-.11.438-.781.438V0l1.125-.031Zm0 0"/><path id="s" d="M4.14-1.187c0-.094-.077-.125-.14-.125-.078 0-.11.062-.125.14C3.531-.14 2.625-.14 2.531-.14c-.5 0-.89-.296-1.125-.671-.297-.47-.297-1.125-.297-1.485h2.782c.218 0 .25 0 .25-.219 0-.984-.547-1.953-1.782-1.953-1.156 0-2.078 1.032-2.078 2.282C.281-.86 1.328.108 2.47.108 3.688.11 4.14-1 4.14-1.187Zm-.656-1.329H1.11C1.172-4 2.016-4.25 2.36-4.25c1.016 0 1.125 1.344 1.125 1.734Zm0 0"/><path id="t" d="M3.594-1.281c0-.516-.297-.828-.422-.938-.328-.328-.719-.406-1.14-.484-.563-.11-1.22-.235-1.22-.813 0-.359.25-.765 1.11-.765 1.094 0 1.156.906 1.172 1.203 0 .094.11.094.11.094.14 0 .14-.047.14-.235v-1.015c0-.157 0-.235-.11-.235-.046 0-.078 0-.203.125-.031.032-.125.125-.172.157-.375-.282-.78-.282-.937-.282-1.219 0-1.594.672-1.594 1.235 0 .343.156.625.422.843.328.25.61.313 1.328.454.219.046 1.031.203 1.031.921 0 .5-.343.907-1.125.907-.843 0-1.203-.563-1.39-1.422-.031-.125-.031-.157-.14-.157-.126 0-.126.063-.126.235v1.328c0 .172 0 .234.11.234C.484.11.5.094.688-.094.703-.109.703-.125.89-.312c.437.406.89.421 1.093.421 1.141 0 1.61-.671 1.61-1.39Zm0 0"/><path id="u" d="M5.063-3.984v-.313c-.235.016-.516.031-.75.031l-.86-.03v.312c.36 0 .469.234.469.422 0 .093-.016.14-.047.25L2.844-.783l-1.11-2.78c-.062-.126-.062-.172-.062-.172 0-.25.39-.25.578-.25v-.313l-1.094.031c-.265 0-.672-.015-.968-.03v.312c.625 0 .671.062.796.359L2.422-.078c.062.14.078.187.203.187.14 0 .172-.093.219-.187L4.14-3.312c.093-.235.265-.672.922-.672Zm0 0"/><path id="v" d="M4.14-1.187c0-.094-.077-.125-.14-.125-.078 0-.11.062-.125.14C3.531-.14 2.625-.14 2.531-.14c-.5 0-.89-.296-1.125-.671-.297-.47-.297-1.125-.297-1.485h2.782c.218 0 .25 0 .25-.219 0-.984-.547-1.953-1.782-1.953-1.156 0-2.078 1.032-2.078 2.282C.281-.86 1.328.108 2.47.108 3.688.11 4.14-1 4.14-1.187Zm-.656-1.329H1.11C1.172-4 2.016-4.25 2.36-4.25c1.016 0 1.125 1.344 1.125 1.734Zm-.03-4.078c0-.187-.188-.36-.36-.36a.35.35 0 0 0-.297.173L1.594-5.266l.172.188L3.28-6.297c.094-.078.172-.187.172-.297Zm0 0"/><path id="w" d="M5.25 0v-.312c-.687 0-.781-.063-.781-.563v-6.047l-1.422.11v.312c.687 0 .765.063.765.563v2.156a1.582 1.582 0 0 0-1.25-.625c-1.171 0-2.218.984-2.218 2.265 0 1.266.969 2.25 2.11 2.25.64 0 1.077-.343 1.327-.656V.11ZM3.781-1.172c0 .172 0 .188-.11.36-.296.484-.733.703-1.171.703-.453 0-.812-.266-1.047-.641-.25-.406-.281-.969-.281-1.39 0-.36.016-.954.297-1.407.218-.312.593-.64 1.14-.64.344 0 .766.156 1.063.593.11.172.11.188.11.375Zm0 0"/></defs><use xlink:href="#a" x="6.916" y="13.628" fill="#00F"/><path fill="none" stroke="#00F" stroke-miterlimit="10" stroke-width=".398" d="M6.918 17.879h4.98"/><use xlink:href="#b" x="6.916" y="27.201" fill="#00F"/><use xlink:href="#c" x="15.307" y="20.368" fill="#00F"/><use xlink:href="#d" x="26.465" y="13.628" fill="#00F"/><path fill="none" stroke="#00F" stroke-miterlimit="10" stroke-width=".398" d="M26.465 17.879h4.98"/><use xlink:href="#e" x="26.465" y="27.201" fill="#00F"/><use xlink:href="#f" x="35.409" y="20.368" fill="#00F"/><use xlink:href="#a" x="47.121" y="13.628" fill="#00F"/><path fill="none" stroke="#00F" stroke-miterlimit="10" stroke-width=".398" d="M47.121 17.879h4.98"/><use xlink:href="#b" x="47.121" y="27.201" fill="#00F"/><use xlink:href="#g" x="55.511" y="20.368" fill="#00F"/><use xlink:href="#e" x="66.669" y="13.628" fill="#00F"/><path fill="none" stroke="#00F" stroke-miterlimit="10" stroke-width=".398" d="M66.668 17.879h4.984"/><use xlink:href="#d" x="66.67" y="27.201" fill="#00F"/><use xlink:href="#f" x="75.614" y="20.368" fill="#00F"/><g fill="#00F"><use xlink:href="#h" x="87.325" y="13.628"/><use xlink:href="#i" x="92.307" y="13.628"/></g><path fill="none" stroke="#00F" stroke-miterlimit="10" stroke-width=".398" d="M87.324 17.879h9.965"/><g fill="#00F"><use xlink:href="#h" x="87.325" y="27.201"/><use xlink:href="#a" x="92.307" y="27.201"/></g><path fill="none" stroke="red" stroke-miterlimit="10" stroke-width=".399" d="M54.938 34.21V.196H74.78v34.016ZM15.25 34.21V.196h19.844v34.016Zm0 0"/><path fill="none" stroke="red" stroke-miterlimit="10" stroke-width=".797" d="M23.754 35.629c0 7.828 8.887 14.176 19.844 14.176 10.96 0 19.843-6.348 19.843-9.512"/><path fill="red" d="M63.441 35.629c-.257 1.383-1.035 3.629-1.941 5.18h3.883c-.906-1.551-1.684-3.797-1.942-5.18"/><g fill="#00F"><use xlink:href="#j" x="3.32" y="63.182"/><use xlink:href="#k" x="6.09" y="63.182"/></g><g fill="#00F"><use xlink:href="#l" x="14.388" y="63.182"/><use xlink:href="#m" x="17.437" y="63.182"/><use xlink:href="#k" x="21.342" y="63.182"/><use xlink:href="#n" x="26.324" y="63.182"/><use xlink:href="#o" x="30.747" y="63.182"/><use xlink:href="#p" x="34.623" y="63.182"/><use xlink:href="#q" x="37.392" y="63.182"/><use xlink:href="#r" x="42.373" y="63.182"/></g><g fill="#00F"><use xlink:href="#s" x="51.23" y="63.182"/><use xlink:href="#t" x="55.654" y="63.182"/><use xlink:href="#o" x="59.579" y="63.182"/></g><g fill="#00F"><use xlink:href="#p" x="66.772" y="63.182"/><use xlink:href="#r" x="69.542" y="63.182"/></g><use xlink:href="#u" x="74.812" y="63.182" fill="#00F"/><g fill="#00F"><use xlink:href="#s" x="79.793" y="63.182"/><use xlink:href="#m" x="84.217" y="63.182"/><use xlink:href="#t" x="88.122" y="63.182"/><use xlink:href="#v" x="92.047" y="63.182"/><use xlink:href="#s" x="96.471" y="63.182"/></g><g fill="#00F"><use xlink:href="#s" x="14.196" y="76.94"/><use xlink:href="#o" x="18.62" y="76.94"/></g><g fill="#00F"><use xlink:href="#j" x="25.813" y="76.94"/><use xlink:href="#s" x="28.583" y="76.94"/></g><use xlink:href="#c" x="36.323" y="76.94" fill="#00F"/><g fill="#00F"><use xlink:href="#w" x="47.39" y="76.94"/><use xlink:href="#s" x="52.929" y="76.94"/><use xlink:href="#u" x="57.352" y="76.94"/><use xlink:href="#p" x="62.613" y="76.94"/><use xlink:href="#s" x="65.382" y="76.94"/><use xlink:href="#r" x="69.806" y="76.94"/></g><use xlink:href="#o" x="75.076" y="76.94" fill="#00F"/><use xlink:href="#g" x="82.259" y="76.94" fill="#00F"/></svg>