<svg xmlns="http://www.w3.org/2000/svg" xmlns:xlink="http://www.w3.org/1999/xlink" width="253.2" height="43.18"><defs><path id="a" d="M4.578-3.187c0-.797-.047-1.594-.39-2.329C3.734-6.484 2.906-6.64 2.5-6.64c-.61 0-1.328.266-1.75 1.188-.312.687-.36 1.469-.36 2.266 0 .75.032 1.64.454 2.406a1.83 1.83 0 0 0 1.64 1c.532 0 1.297-.203 1.735-1.156.312-.688.36-1.47.36-2.25ZM2.484 0c-.39 0-.984-.25-1.156-1.203-.11-.594-.11-1.516-.11-2.11 0-.64 0-1.296.079-1.828.187-1.187.937-1.28 1.187-1.28.329 0 .985.187 1.172 1.171.11.563.11 1.313.11 1.938 0 .75 0 1.421-.11 2.062C3.5-.297 2.937 0 2.484 0Zm0 0"/><path id="b" d="M2.938-6.375c0-.25 0-.266-.235-.266C2.078-6 1.203-6 .891-6v.313c.203 0 .78 0 1.297-.266v5.172c0 .36-.032.469-.922.469H.953V0c.344-.031 1.203-.031 1.61-.031.39 0 1.265 0 1.609.031v-.312h-.313c-.906 0-.921-.11-.921-.47Zm0 0"/><path id="c" d="m1.266-.766 1.062-1.03c1.547-1.376 2.14-1.907 2.14-2.907 0-1.14-.89-1.938-2.109-1.938C1.234-6.64.5-5.719.5-4.828c0 .547.5.547.531.547.172 0 .516-.11.516-.532a.513.513 0 0 0-.531-.515c-.079 0-.094 0-.125.016.218-.657.765-1.016 1.343-1.016.907 0 1.329.812 1.329 1.625 0 .797-.485 1.578-1.047 2.203L.609-.375C.5-.265.5-.235.5 0h3.703l.266-1.734h-.235C4.172-1.437 4.11-1 4-.844c-.062.078-.719.078-.937.078Zm0 0"/><path id="d" d="M2.89-3.516c.813-.265 1.391-.953 1.391-1.75 0-.812-.875-1.375-1.828-1.375-1 0-1.765.594-1.765 1.36 0 .328.218.515.515.515.297 0 .5-.218.5-.515 0-.485-.469-.485-.61-.485.298-.5.954-.625 1.313-.625.422 0 .969.22.969 1.11 0 .125-.031.703-.281 1.14-.297.485-.64.516-.89.516a3.29 3.29 0 0 1-.392.031c-.078.016-.14.031-.14.125 0 .11.062.11.234.11h.438c.812 0 1.187.672 1.187 1.656 0 1.36-.687 1.64-1.125 1.64-.437 0-1.187-.171-1.531-.75.344.047.656-.171.656-.546a.537.537 0 0 0-.547-.563c-.25 0-.562.14-.562.578C.422-.437 1.344.22 2.437.22c1.22 0 2.126-.906 2.126-1.922 0-.813-.641-1.594-1.672-1.813Zm0 0"/><path id="e" d="M2.938-1.64v.859c0 .36-.032.469-.766.469h-.203V0c.406-.031.922-.031 1.344-.031.421 0 .937 0 1.359.031v-.312h-.219c-.734 0-.75-.11-.75-.47v-.859h.985v-.312h-.985v-4.531c0-.203 0-.266-.172-.266-.078 0-.11 0-.187.125L.28-1.953v.312Zm.046-.313H.563l2.421-3.719Zm0 0"/><path id="f" d="M4.469-2c0-1.187-.813-2.187-1.89-2.187-.47 0-.907.156-1.267.515v-1.953c.204.063.532.125.844.125 1.235 0 1.938-.906 1.938-1.031 0-.063-.032-.11-.11-.11 0 0-.03 0-.078.032a3.22 3.22 0 0 1-1.36.297c-.39 0-.858-.079-1.327-.282-.078-.031-.094-.031-.11-.031C1-6.625 1-6.547 1-6.391v2.954c0 .171 0 .25.14.25.079 0 .094-.016.141-.079.11-.156.469-.703 1.282-.703.515 0 .765.453.843.64.156.376.188.75.188 1.25 0 .36 0 .954-.25 1.376-.235.39-.61.64-1.063.64-.719 0-1.297-.53-1.469-1.109.032 0 .063.016.172.016.329 0 .5-.25.5-.485 0-.25-.171-.5-.5-.5-.14 0-.484.079-.484.532C.5-.75 1.188.219 2.297.219 3.453.219 4.469-.734 4.469-2Zm0 0"/><path id="h" d="M3.297 2.39c0-.03 0-.046-.172-.218C1.891.922 1.563-.968 1.563-2.5c0-1.734.375-3.469 1.609-4.703.125-.125.125-.14.125-.172 0-.078-.031-.11-.094-.11-.11 0-1 .688-1.594 1.954C1.11-4.438.984-3.328.984-2.5c0 .781.11 1.984.657 3.125C2.25 1.844 3.094 2.5 3.203 2.5c.063 0 .094-.031.094-.11Zm0 0"/><path id="i" d="M2.875-2.5c0-.766-.11-1.969-.656-3.11C1.625-6.827.766-7.483.672-7.483a.107.107 0 0 0-.11.109c0 .031 0 .047.188.234.984.985 1.547 2.563 1.547 4.641 0 1.719-.36 3.469-1.594 4.719-.14.125-.14.14-.14.172 0 .062.046.109.109.109.094 0 1-.687 1.578-1.953.516-1.094.625-2.203.625-3.047Zm0 0"/><path id="n" d="M5.516-6.781H.328v.312h.235c.765 0 .796.11.796.469v5.219c0 .36-.03.469-.796.469H.328V0c.344-.031 1.125-.031 1.516-.031.406 0 1.312 0 1.672.031v-.312h-.328c-.938 0-.938-.125-.938-.47v-5.296c0-.328.016-.39.484-.39h1.032c1.422 0 1.625.593 1.78 1.937h.25Zm0 0"/><path id="o" d="M3.656-3.172v.328c0 2.328-1.031 2.782-1.61 2.782-.171 0-.718-.016-.983-.36.437 0 .515-.281.515-.453 0-.312-.234-.453-.453-.453-.156 0-.453.078-.453.469 0 .672.531 1.078 1.375 1.078 1.297 0 2.516-1.36 2.516-3.5 0-2.688-1.157-3.36-2.047-3.36-.547 0-1.032.188-1.453.625C.64-5.562.422-5.14.422-4.39c0 1.235.875 2.22 1.984 2.22.61 0 1.016-.423 1.25-1Zm-1.234.766c-.156 0-.625 0-.922-.625-.187-.375-.187-.86-.187-1.36 0-.53 0-1 .218-1.375.266-.5.64-.625.985-.625.468 0 .797.344.968.782.11.328.157.953.157 1.406 0 .828-.344 1.797-1.22 1.797Zm0 0"/><path id="g" d="M7.14 0v-.312H6.97c-.594 0-.735-.063-.844-.391L3.969-6.937c-.047-.125-.078-.204-.235-.204-.156 0-.187.063-.234.204L1.438-.984C1.25-.47.859-.312.313-.312V0l1.015-.031L2.484 0v-.312c-.5 0-.75-.25-.75-.5 0-.032.016-.141.016-.157l.469-1.297h2.453L5.203-.75a.58.58 0 0 1 .031.14c0 .298-.562.298-.828.298V0c.36-.031 1.063-.031 1.438-.031ZM4.564-2.578H2.328l1.11-3.25Zm0 0"/><path id="j" d="M6.484-1.828c0-.86-.812-1.61-1.921-1.734.968-.188 1.656-.829 1.656-1.563 0-.86-.922-1.687-2.219-1.687H.36v.312h.234c.765 0 .797.11.797.469v5.25c0 .36-.032.469-.797.469H.359V0h3.907c1.328 0 2.218-.89 2.218-1.828ZM5.25-5.125c0 .64-.484 1.469-1.594 1.469H2.22v-2.438c0-.343.015-.406.484-.406h1.235c.968 0 1.312.844 1.312 1.375Zm.25 3.297c0 .703-.531 1.516-1.547 1.516h-1.25c-.469 0-.484-.063-.484-.391v-2.719h1.875c.984 0 1.406.922 1.406 1.594Zm0 0"/><path id="k" d="M5.578-2.656h-.25C5.25-1.281 5.062-.344 3.218-.344h-1.64l3.875-6.11c.063-.109.063-.124.063-.202 0-.157-.047-.157-.25-.157H.796l-.109 2.25h.25C1-5.687 1.313-6.5 2.938-6.5H4.5L.625-.375c-.062.11-.062.125-.062.203C.563 0 .609 0 .813 0h4.593Zm0 0"/><path id="l" d="M7.14-6.5v-.312l-1.171.03-1.188-.03v.312c1.016 0 1.016.469 1.016.734v3.47c0 1.405-.969 2.202-1.906 2.202-.47 0-1.641-.25-1.641-2.14v-3.797c0-.36.016-.469.781-.469h.235v-.312c-.344.03-1.078.03-1.47.03-.374 0-1.124 0-1.468-.03v.312h.235c.765 0 .796.11.796.469v3.765C1.36-.875 2.516.22 3.875.22c1.14 0 2.031-.922 2.203-2.063.031-.203.031-.297.031-.687V-5.72c0-.328 0-.781 1.032-.781Zm0 0"/><path id="m" d="M2.031-.016c0-.656-.25-1.046-.64-1.046a.517.517 0 0 0-.532.53c0 .266.204.532.532.532a.58.58 0 0 0 .343-.125c.032-.031.047-.031.047-.031.016 0 .016 0 .016.14 0 .75-.344 1.344-.672 1.672-.11.11-.11.125-.11.157 0 .078.048.109.094.109.11 0 .922-.766.922-1.938Zm0 0"/></defs><path fill="none" stroke="#000" stroke-miterlimit="10" stroke-width=".399" d="M5.813 22.477h166.492"/><path d="M175.89 22.477c-1.062-.2-2.788-.797-3.984-1.497v2.989c1.196-.696 2.922-1.293 3.985-1.492"/><path fill="none" stroke="#000" stroke-miterlimit="10" stroke-width=".399" d="M5.813 28.145V16.809"/><use xlink:href="#a" x="3.32" y="39.86"/><path fill="none" stroke="#000" stroke-miterlimit="10" stroke-width=".399" d="M34.156 28.145V16.809"/><use xlink:href="#b" x="31.667" y="39.86"/><path fill="none" stroke="#000" stroke-miterlimit="10" stroke-width=".399" d="M62.504 28.145V16.809"/><use xlink:href="#c" x="60.014" y="39.86"/><path fill="none" stroke="#000" stroke-miterlimit="10" stroke-width=".399" d="M90.852 28.145V16.809"/><use xlink:href="#d" x="88.361" y="39.86"/><path fill="none" stroke="#000" stroke-miterlimit="10" stroke-width=".399" d="M119.2 28.145V16.809"/><use xlink:href="#e" x="116.708" y="39.86"/><path fill="none" stroke="#000" stroke-miterlimit="10" stroke-width=".399" d="M147.547 28.145V16.809"/><use xlink:href="#f" x="145.055" y="39.86"/><path fill="red" d="M148.96 22.477a1.415 1.415 0 1 0-2.832 0 1.417 1.417 0 1 0 2.832 0Zm0 0"/><use xlink:href="#g" x="143.809" y="14.704" fill="red"/><use xlink:href="#g" x="193.585" y="10.793" fill="red"/><g fill="red"><use xlink:href="#h" x="201.057" y="10.793"/><use xlink:href="#f" x="204.923" y="10.793"/><use xlink:href="#i" x="209.904" y="10.793"/></g><path fill="red" d="M92.27 22.477a1.418 1.418 0 1 0-2.836 0 1.418 1.418 0 0 0 2.836 0Zm0 0"/><use xlink:href="#j" x="87.325" y="14.54" fill="red"/><use xlink:href="#j" x="193.585" y="22.132" fill="red"/><g fill="red"><use xlink:href="#h" x="200.639" y="22.132"/><use xlink:href="#d" x="204.504" y="22.132"/><use xlink:href="#i" x="209.486" y="22.132"/></g><path fill="red" d="M35.574 22.477a1.415 1.415 0 1 0-2.832 0 1.417 1.417 0 1 0 2.832 0Zm0 0"/><use xlink:href="#k" x="31.114" y="14.54" fill="red"/><use xlink:href="#k" x="193.585" y="33.47" fill="red"/><g fill="red"><use xlink:href="#h" x="199.672" y="33.47"/><use xlink:href="#b" x="203.538" y="33.47"/><use xlink:href="#i" x="208.519" y="33.47"/></g><path fill="red" d="M134.79 22.477a1.418 1.418 0 1 0-2.836 0 1.418 1.418 0 0 0 2.835 0Zm0 0"/><use xlink:href="#l" x="129.636" y="14.43" fill="red"/><use xlink:href="#l" x="221.932" y="10.793" fill="red"/><g fill="red"><use xlink:href="#h" x="229.404" y="10.793"/><use xlink:href="#e" x="233.27" y="10.793"/></g><use xlink:href="#m" x="238.26" y="10.793" fill="red"/><g fill="red"><use xlink:href="#f" x="241.027" y="10.793"/><use xlink:href="#i" x="246.008" y="10.793"/></g><path fill="red" d="M117.781 22.477a1.418 1.418 0 1 0-2.835 0 1.418 1.418 0 0 0 2.835 0Zm0 0"/><use xlink:href="#n" x="113.25" y="14.541" fill="red"/><g fill="red"><use xlink:href="#n" x="221.932" y="22.132"/><use xlink:href="#h" x="228.159" y="22.132"/><use xlink:href="#d" x="232.024" y="22.132"/></g><use xlink:href="#m" x="237.014" y="22.132" fill="red"/><g fill="red"><use xlink:href="#o" x="239.782" y="22.132"/><use xlink:href="#i" x="244.763" y="22.132"/></g></svg>