<svg xmlns="http://www.w3.org/2000/svg" xmlns:xlink="http://www.w3.org/1999/xlink" width="291.53" height="185.43"><defs><path id="b" d="M4.688-2.14c0-1.266-.985-2.329-2.188-2.329C1.25-4.469.281-3.375.281-2.14A2.22 2.22 0 0 0 2.484.11c1.204 0 2.204-.984 2.204-2.25Zm-.813-.079c0 .36 0 .906-.219 1.344-.234.453-.672.734-1.156.734-.437 0-.875-.203-1.14-.671-.25-.438-.25-1.047-.25-1.407 0-.39 0-.922.234-1.36a1.347 1.347 0 0 1 1.14-.671c.438 0 .86.219 1.125.656.266.422.266 1 .266 1.375Zm0 0"/><path id="c" d="M3.625-3.797c0-.312-.312-.61-.734-.61-.735 0-1.094.673-1.22 1.095v-1.094l-1.39.11v.312c.703 0 .782.062.782.562V-.75c0 .438-.11.438-.782.438V0l1.14-.031c.391 0 .86 0 1.267.031v-.312h-.22c-.734 0-.75-.11-.75-.47v-1.53c0-.985.423-1.876 1.173-1.876.062 0 .093 0 .109.016-.031 0-.234.125-.234.39 0 .266.218.423.437.423a.421.421 0 0 0 .422-.438Zm0 0"/><path id="d" d="M2.469 0v-.312c-.672 0-.703-.047-.703-.438v-3.656l-1.391.11v.312c.64 0 .734.062.734.547V-.75c0 .438-.109.438-.78.438V0l1.093-.031c.36 0 .703.015 1.047.031Zm-.563-6.016a.523.523 0 0 0-.515-.53.54.54 0 0 0-.547.53c0 .266.234.516.531.516a.513.513 0 0 0 .531-.516Zm0 0"/><path id="e" d="M4.828-4.031c0-.172-.11-.485-.5-.485-.203 0-.64.063-1.062.47a1.652 1.652 0 0 0-1.047-.36c-.938 0-1.625.687-1.625 1.453 0 .437.219.812.469 1.031-.125.14-.313.469-.313.828 0 .313.14.688.453.89-.61.157-.922.595-.922.985 0 .719.985 1.266 2.203 1.266 1.172 0 2.204-.5 2.204-1.281 0-.344-.125-.86-.641-1.141-.531-.266-1.11-.266-1.719-.266-.25 0-.672 0-.75-.015-.312-.047-.516-.344-.516-.672 0-.031 0-.266.157-.469.39.281.812.313 1 .313.922 0 1.61-.688 1.61-1.453 0-.376-.157-.735-.407-.97.36-.343.719-.39.89-.39 0 0 .079 0 .11.016-.11.031-.172.14-.172.265 0 .172.14.282.297.282a.28.28 0 0 0 .281-.297Zm-1.75 1.078c0 .265 0 .594-.156.844-.078.109-.313.39-.703.39-.875 0-.875-1-.875-1.218 0-.266.015-.594.156-.844.078-.11.313-.39.719-.39.86 0 .86.984.86 1.218ZM4.172.78c0 .547-.703 1.047-1.672 1.047C1.484 1.828.797 1.312.797.781c0-.453.375-.828.812-.843h.594c.86 0 1.969 0 1.969.843Zm0 0"/><path id="f" d="M5.328 0v-.312c-.516 0-.766 0-.766-.297v-1.907c0-.859 0-1.156-.312-1.515-.14-.172-.469-.375-1.047-.375-.734 0-1.203.422-1.484 1.047v-1.047l-1.406.11v.312c.703 0 .78.062.78.562V-.75c0 .438-.109.438-.78.438V0l1.14-.031L2.563 0v-.312c-.672 0-.782 0-.782-.438v-1.844c0-1.031.719-1.594 1.344-1.594.64 0 .75.532.75 1.11V-.75c0 .438-.11.438-.781.438V0l1.125-.031Zm0 0"/><path id="g" d="M4.14-1.187c0-.094-.077-.125-.14-.125-.078 0-.11.062-.125.14C3.531-.14 2.625-.14 2.531-.14c-.5 0-.89-.296-1.125-.671-.297-.47-.297-1.125-.297-1.485h2.782c.218 0 .25 0 .25-.219 0-.984-.547-1.953-1.782-1.953-1.156 0-2.078 1.032-2.078 2.282C.281-.86 1.328.108 2.47.108 3.688.11 4.14-1 4.14-1.187Zm-.656-1.329H1.11C1.172-4 2.016-4.25 2.36-4.25c1.016 0 1.125 1.344 1.125 1.734Zm0 0"/><path id="h" d="M7.14 0v-.312H6.97c-.594 0-.735-.063-.844-.391L3.969-6.937c-.047-.125-.078-.204-.235-.204-.156 0-.187.063-.234.204L1.438-.984C1.25-.47.859-.312.313-.312V0l1.015-.031L2.484 0v-.312c-.5 0-.75-.25-.75-.5 0-.032.016-.141.016-.157l.469-1.297h2.453L5.203-.75a.58.58 0 0 1 .031.14c0 .298-.562.298-.828.298V0c.36-.031 1.063-.031 1.438-.031ZM4.564-2.578H2.328l1.11-3.25Zm0 0"/><path id="i" d="M5.14 0v-.312c-.53 0-.718-.016-.937-.313L2.86-2.344c.297-.375.672-.86.922-1.125.313-.36.719-.515 1.188-.515v-.313c-.266.016-.563.031-.828.031-.297 0-.828-.015-.953-.03v.312c.218.015.296.14.296.312 0 .156-.109.281-.156.344l-.61.781-.78-1.015c-.094-.094-.094-.11-.094-.172 0-.157.156-.25.343-.25v-.313l-1.078.031c-.203 0-.671-.015-.937-.03v.312c.703 0 .703 0 1.172.609l.984 1.281c-.469.594-.469.625-.937 1.188a1.566 1.566 0 0 1-1.266.594V0c.25-.016.563-.031.828-.031L1.891 0v-.312c-.22-.032-.282-.157-.282-.313 0-.219.282-.547.891-1.266l.766 1c.078.11.203.266.203.329 0 .093-.094.25-.36.25V0l1.079-.031c.265 0 .656.015.953.031Zm0 0"/><path id="j" d="M5.25 0v-.312c-.687 0-.781-.063-.781-.563v-6.047l-1.422.11v.312c.687 0 .765.063.765.563v2.156a1.582 1.582 0 0 0-1.25-.625c-1.171 0-2.218.984-2.218 2.265 0 1.266.969 2.25 2.11 2.25.64 0 1.077-.343 1.327-.656V.11ZM3.781-1.172c0 .172 0 .188-.11.36-.296.484-.733.703-1.171.703-.453 0-.812-.266-1.047-.641-.25-.406-.281-.969-.281-1.39 0-.36.016-.954.297-1.407.218-.312.593-.64 1.14-.64.344 0 .766.156 1.063.593.11.172.11.188.11.375Zm0 0"/><path id="k" d="M3.594-1.281c0-.516-.297-.828-.422-.938-.328-.328-.719-.406-1.14-.484-.563-.11-1.22-.235-1.22-.813 0-.359.25-.765 1.11-.765 1.094 0 1.156.906 1.172 1.203 0 .094.11.094.11.094.14 0 .14-.047.14-.235v-1.015c0-.157 0-.235-.11-.235-.046 0-.078 0-.203.125-.031.032-.125.125-.172.157-.375-.282-.78-.282-.937-.282-1.219 0-1.594.672-1.594 1.235 0 .343.156.625.422.843.328.25.61.313 1.328.454.219.046 1.031.203 1.031.921 0 .5-.343.907-1.125.907-.843 0-1.203-.563-1.39-1.422-.031-.125-.031-.157-.14-.157-.126 0-.126.063-.126.235v1.328c0 .172 0 .234.11.234C.484.11.5.094.688-.094.703-.109.703-.125.89-.312c.437.406.89.421 1.093.421 1.141 0 1.61-.671 1.61-1.39Zm0 0"/><path id="l" d="M4.813-.89v-.563h-.25v.562c0 .579-.25.641-.36.641-.328 0-.36-.453-.36-.5v-1.984c0-.422 0-.813-.359-1.188-.39-.39-.89-.547-1.375-.547-.812 0-1.5.469-1.5 1.125 0 .297.204.469.454.469a.448.448 0 0 0 .468-.453c0-.125-.062-.453-.515-.453.265-.36.765-.469 1.078-.469.484 0 1.062.39 1.062 1.281v.36c-.515.03-1.219.062-1.844.359-.75.344-1 .86-1 1.297 0 .812.97 1.062 1.594 1.062.672 0 1.125-.406 1.313-.859.047.39.312.813.781.813.203 0 .813-.141.813-.954Zm-1.657-.5c0 .937-.719 1.28-1.172 1.28-.484 0-.89-.343-.89-.843 0-.547.406-1.375 2.062-1.438Zm0 0"/><path id="m" d="M5.188-2.156c0-1.266-.97-2.25-2.11-2.25-.781 0-1.203.468-1.36.64v-3.156l-1.437.11v.312c.703 0 .782.063.782.563V0h.25l.359-.625c.14.234.562.734 1.297.734 1.187 0 2.219-.984 2.219-2.265Zm-.829 0c0 .36-.015.953-.296 1.406-.22.313-.594.64-1.125.64-.454 0-.813-.234-1.047-.609-.141-.203-.141-.234-.141-.422v-2.046c0-.188 0-.204.11-.36.39-.562.937-.64 1.171-.64.453 0 .813.265 1.047.64.266.406.281.969.281 1.39Zm0 0"/><path id="n" d="M4.14-1.187c0-.094-.109-.094-.14-.094-.078 0-.11.031-.125.093C3.594-.265 2.938-.14 2.578-.14c-.531 0-1.406-.421-1.406-2.03 0-1.626.812-2.048 1.344-2.048.093 0 .718.016 1.062.375-.406.031-.469.328-.469.453 0 .266.188.454.454.454.265 0 .468-.157.468-.47 0-.671-.765-1.062-1.531-1.062C1.25-4.469.344-3.39.344-2.156c0 1.281.984 2.265 2.14 2.265 1.329 0 1.657-1.203 1.657-1.296Zm0 0"/><path id="o" d="M4.14-1.187c0-.094-.077-.125-.14-.125-.078 0-.11.062-.125.14C3.531-.14 2.625-.14 2.531-.14c-.5 0-.89-.296-1.125-.671-.297-.47-.297-1.125-.297-1.485h2.782c.218 0 .25 0 .25-.219 0-.984-.547-1.953-1.782-1.953-1.156 0-2.078 1.032-2.078 2.282C.281-.86 1.328.108 2.47.108 3.688.11 4.14-1 4.14-1.187Zm-.656-1.329H1.11C1.172-4 2.016-4.25 2.36-4.25c1.016 0 1.125 1.344 1.125 1.734Zm-.03-4.078c0-.187-.188-.36-.36-.36a.35.35 0 0 0-.297.173L1.594-5.266l.172.188L3.28-6.297c.094-.078.172-.187.172-.297Zm0 0"/><clipPath id="a"><path d="M287 169h4.531v4H287Zm0 0"/></clipPath></defs><path stroke="#000" stroke-miterlimit="10" stroke-width=".399" d="M39.047 171.348a2.836 2.836 0 1 0-5.672 0 2.836 2.836 0 0 0 5.672 0Zm0 0"/><path fill="none" stroke="#000" stroke-miterlimit="10" stroke-width=".399" d="M36.21 171.348h251.536"/><g clip-path="url(#a)"><path d="M291.332 171.348c-1.062-.2-2.789-.797-3.984-1.496v2.988c1.195-.695 2.922-1.293 3.984-1.492"/></g><path fill="none" stroke="#000" stroke-miterlimit="10" stroke-width=".399" d="M36.21 171.348V4.852"/><path d="M36.21 1.266c-.198 1.062-.796 2.789-1.495 3.984h2.988c-.695-1.195-1.293-2.922-1.492-3.984"/><path fill="none" stroke="#000" stroke-miterlimit="10" stroke-width=".399" d="M64.559 174.184v-5.672M92.902 174.184v-5.672M121.25 174.184v-5.672M149.598 174.184v-5.672M177.945 174.184v-5.672M206.29 174.184v-5.672M234.637 174.184v-5.672M262.984 174.184v-5.672M33.375 143h5.672M33.375 114.652h5.672M33.375 86.305h5.672M33.375 57.96h5.672M33.375 29.613h5.672"/><use xlink:href="#b" x="3.32" y="173.593"/><use xlink:href="#c" x="8.301" y="173.593"/><use xlink:href="#d" x="12.207" y="173.593"/><use xlink:href="#e" x="14.976" y="173.593"/><use xlink:href="#d" x="19.958" y="173.593"/><use xlink:href="#f" x="22.727" y="173.593"/><use xlink:href="#g" x="28.267" y="173.593"/><use xlink:href="#h" x="212.294" y="182"/><use xlink:href="#i" x="219.766" y="182"/><use xlink:href="#g" x="225.026" y="182"/><use xlink:href="#j" x="232.767" y="182"/><use xlink:href="#g" x="238.306" y="182"/><use xlink:href="#k" x="242.73" y="182"/><use xlink:href="#l" x="249.973" y="182"/><use xlink:href="#m" x="254.954" y="182"/><use xlink:href="#k" x="260.493" y="182"/><use xlink:href="#n" x="264.418" y="182"/><use xlink:href="#d" x="268.842" y="182"/><use xlink:href="#k" x="271.611" y="182"/><use xlink:href="#k" x="275.537" y="182"/><use xlink:href="#g" x="279.462" y="182"/><use xlink:href="#k" x="283.885" y="182"/><use xlink:href="#h" x="39.73" y="10.447"/><use xlink:href="#i" x="47.202" y="10.447"/><use xlink:href="#g" x="52.462" y="10.447"/><use xlink:href="#j" x="60.203" y="10.447"/><use xlink:href="#g" x="65.742" y="10.447"/><use xlink:href="#k" x="70.166" y="10.447"/><use xlink:href="#b" x="77.409" y="10.447"/><use xlink:href="#c" x="82.39" y="10.447"/><use xlink:href="#j" x="86.295" y="10.447"/><use xlink:href="#b" x="91.835" y="10.447"/><use xlink:href="#f" x="96.816" y="10.447"/><use xlink:href="#f" x="102.355" y="10.447"/><use xlink:href="#o" x="107.894" y="10.447"/><use xlink:href="#g" x="112.318" y="10.447"/><use xlink:href="#k" x="116.741" y="10.447"/></svg>