<svg xmlns="http://www.w3.org/2000/svg" xmlns:xlink="http://www.w3.org/1999/xlink" width="237.98" height="170.48"><defs><path id="b" d="M2.938-6.375c0-.25 0-.266-.235-.266C2.078-6 1.203-6 .891-6v.313c.203 0 .78 0 1.297-.266v5.172c0 .36-.032.469-.922.469H.953V0c.344-.031 1.203-.031 1.61-.031.39 0 1.265 0 1.609.031v-.312h-.313c-.906 0-.921-.11-.921-.47Zm0 0"/><path id="c" d="m1.266-.766 1.062-1.03c1.547-1.376 2.14-1.907 2.14-2.907 0-1.14-.89-1.938-2.109-1.938C1.234-6.64.5-5.719.5-4.828c0 .547.5.547.531.547.172 0 .516-.11.516-.532a.513.513 0 0 0-.531-.515c-.079 0-.094 0-.125.016.218-.657.765-1.016 1.343-1.016.907 0 1.329.812 1.329 1.625 0 .797-.485 1.578-1.047 2.203L.609-.375C.5-.265.5-.235.5 0h3.703l.266-1.734h-.235C4.172-1.437 4.11-1 4-.844c-.062.078-.719.078-.937.078Zm0 0"/><path id="d" d="M2.89-3.516c.813-.265 1.391-.953 1.391-1.75 0-.812-.875-1.375-1.828-1.375-1 0-1.765.594-1.765 1.36 0 .328.218.515.515.515.297 0 .5-.218.5-.515 0-.485-.469-.485-.61-.485.298-.5.954-.625 1.313-.625.422 0 .969.22.969 1.11 0 .125-.031.703-.281 1.14-.297.485-.64.516-.89.516a3.29 3.29 0 0 1-.392.031c-.078.016-.14.031-.14.125 0 .11.062.11.234.11h.438c.812 0 1.187.672 1.187 1.656 0 1.36-.687 1.64-1.125 1.64-.437 0-1.187-.171-1.531-.75.344.047.656-.171.656-.546a.537.537 0 0 0-.547-.563c-.25 0-.562.14-.562.578C.422-.437 1.344.22 2.437.22c1.22 0 2.126-.906 2.126-1.922 0-.813-.641-1.594-1.672-1.813Zm0 0"/><path id="e" d="M2.938-1.64v.859c0 .36-.032.469-.766.469h-.203V0c.406-.031.922-.031 1.344-.031.421 0 .937 0 1.359.031v-.312h-.219c-.734 0-.75-.11-.75-.47v-.859h.985v-.312h-.985v-4.531c0-.203 0-.266-.172-.266-.078 0-.11 0-.187.125L.28-1.953v.312Zm.046-.313H.563l2.421-3.719Zm0 0"/><path id="h" d="M3.297 2.39c0-.03 0-.046-.172-.218C1.891.922 1.563-.968 1.563-2.5c0-1.734.375-3.469 1.609-4.703.125-.125.125-.14.125-.172 0-.078-.031-.11-.094-.11-.11 0-1 .688-1.594 1.954C1.11-4.438.984-3.328.984-2.5c0 .781.11 1.984.657 3.125C2.25 1.844 3.094 2.5 3.203 2.5c.063 0 .094-.031.094-.11Zm0 0"/><path id="j" d="M2.875-2.5c0-.766-.11-1.969-.656-3.11C1.625-6.827.766-7.483.672-7.483a.107.107 0 0 0-.11.109c0 .031 0 .047.188.234.984.985 1.547 2.563 1.547 4.641 0 1.719-.36 3.469-1.594 4.719-.14.125-.14.14-.14.172 0 .062.046.109.109.109.094 0 1-.687 1.578-1.953.516-1.094.625-2.203.625-3.047Zm0 0"/><path id="o" d="M4.578-3.187c0-.797-.047-1.594-.39-2.329C3.734-6.484 2.906-6.64 2.5-6.64c-.61 0-1.328.266-1.75 1.188-.312.687-.36 1.469-.36 2.266 0 .75.032 1.64.454 2.406a1.83 1.83 0 0 0 1.64 1c.532 0 1.297-.203 1.735-1.156.312-.688.36-1.47.36-2.25ZM2.484 0c-.39 0-.984-.25-1.156-1.203-.11-.594-.11-1.516-.11-2.11 0-.64 0-1.296.079-1.828.187-1.187.937-1.28 1.187-1.28.329 0 .985.187 1.172 1.171.11.563.11 1.313.11 1.938 0 .75 0 1.421-.11 2.062C3.5-.297 2.937 0 2.484 0Zm0 0"/><path id="f" d="M6.594 0v-.281h-.14c-.563 0-.657-.078-.75-.328L3.671-6.234c-.047-.11-.078-.188-.219-.188-.14 0-.156.047-.219.203L1.313-.89c-.11.297-.313.61-1 .61V0c.328-.031.578-.031.906-.031L2.234 0v-.281c-.515 0-.671-.281-.671-.453 0-.079.03-.125.046-.172l.422-1.156h2.313l.484 1.359c.047.078.047.11.047.156 0 .266-.5.266-.734.266V0c.406-.031.875-.031 1.28-.031ZM4.25-2.344H2.125L3.188-5.28Zm0 0"/><path id="k" d="M6.016-1.625c0-.812-.782-1.469-1.782-1.578.891-.172 1.516-.75 1.516-1.406 0-.797-.86-1.516-2.047-1.516H.375v.281h.203c.688 0 .703.094.703.422v4.719c0 .328-.015.422-.703.422H.375V0h3.578c1.219 0 2.063-.797 2.063-1.625ZM4.89-4.609c0 .687-.61 1.312-1.453 1.312H2.03v-2.187c0-.297.016-.36.438-.36H3.64c.875 0 1.25.703 1.25 1.235Zm.234 2.953c0 .703-.547 1.375-1.469 1.375H2.47c-.422 0-.438-.063-.438-.36v-2.437h1.703c1.032 0 1.391.875 1.391 1.422Zm0 0"/><path id="m" d="M6.14-2.078c0-.094 0-.172-.124-.172-.125 0-.125.063-.125.14A2.085 2.085 0 0 1 3.813-.077c-.766 0-2.391-.484-2.391-2.984s1.64-2.985 2.375-2.985c.89 0 1.828.672 2.047 2.125.015.125.031.156.14.156.157 0 .157-.03.157-.218v-2.11c0-.156 0-.234-.11-.234-.062 0-.093.031-.14.11l-.47.671c-.28-.281-.796-.781-1.702-.781-1.735 0-3.203 1.453-3.203 3.266C.516-1.22 2 .203 3.719.203 5.203.203 6.14-1.03 6.14-2.078Zm0 0"/><path id="p" d="M6.516-3.016c0-1.703-1.235-3.109-2.828-3.109H.358v.281h.204c.687 0 .718.094.718.422v4.719c0 .328-.031.422-.718.422H.359V0h3.329C5.25 0 6.515-1.328 6.515-3.016Zm-.891 0c0 .375 0 1.313-.484 1.938-.47.61-1.11.797-1.672.797H2.5c-.422 0-.453-.063-.453-.36v-4.843c0-.297.031-.36.453-.36h.953c.875 0 1.406.453 1.656.782.391.515.516 1.156.516 2.046Zm0 0"/><path id="g" d="M7.14 0v-.312H6.97c-.594 0-.735-.063-.844-.391L3.969-6.937c-.047-.125-.078-.204-.235-.204-.156 0-.187.063-.234.204L1.438-.984C1.25-.47.859-.312.313-.312V0l1.015-.031L2.484 0v-.312c-.5 0-.75-.25-.75-.5 0-.032.016-.141.016-.157l.469-1.297h2.453L5.203-.75a.58.58 0 0 1 .031.14c0 .298-.562.298-.828.298V0c.36-.031 1.063-.031 1.438-.031ZM4.564-2.578H2.328l1.11-3.25Zm0 0"/><path id="i" d="M1.906-3.766a.524.524 0 1 0-1.047 0c0 .282.235.532.532.532.28 0 .515-.25.515-.532ZM1.938-.03c0-.281-.016-1.031-.547-1.031-.36 0-.532.28-.532.53 0 .266.172.532.532.532.046 0 .078-.016.078-.016a.453.453 0 0 0 .25-.093c0 .28 0 1.062-.625 1.797-.078.078-.078.093-.078.125 0 .078.046.109.093.109.11 0 .829-.797.829-1.953Zm0 0"/><path id="l" d="M6.484-1.828c0-.86-.812-1.61-1.921-1.734.968-.188 1.656-.829 1.656-1.563 0-.86-.922-1.687-2.219-1.687H.36v.312h.234c.765 0 .797.11.797.469v5.25c0 .36-.032.469-.797.469H.359V0h3.907c1.328 0 2.218-.89 2.218-1.828ZM5.25-5.125c0 .64-.484 1.469-1.594 1.469H2.22v-2.438c0-.343.015-.406.484-.406h1.235c.968 0 1.312.844 1.312 1.375Zm.25 3.297c0 .703-.531 1.516-1.547 1.516h-1.25c-.469 0-.484-.063-.484-.391v-2.719h1.875c.984 0 1.406.922 1.406 1.594Zm0 0"/><path id="n" d="M6.625-2.328c0-.094 0-.172-.125-.172-.11 0-.11.063-.125.172C6.297-.906 5.235-.094 4.141-.094c-.61 0-2.563-.328-2.563-3.312 0-2.969 1.953-3.313 2.563-3.313 1.078 0 1.968.907 2.172 2.36.015.14.015.172.156.172.156 0 .156-.032.156-.235v-2.36c0-.171 0-.25-.11-.25-.03 0-.077 0-.156.126l-.5.734c-.359-.36-.875-.86-1.828-.86-1.875 0-3.468 1.595-3.468 3.626C.563-1.344 2.172.219 4.03.219c1.625 0 2.594-1.39 2.594-2.547Zm0 0"/><path id="q" d="M7.047-3.344C7.047-5.25 5.703-6.812 4-6.812H.344v.312h.25c.765 0 .781.11.781.469v5.25c0 .36-.016.469-.781.469h-.25V0H4c1.672 0 3.047-1.469 3.047-3.344Zm-1 0c0 1.094-.188 1.703-.547 2.188a2.192 2.192 0 0 1-1.766.843H2.72c-.469 0-.485-.062-.485-.39v-5.39c0-.344.016-.407.485-.407h1c.625 0 1.312.219 1.812.922.438.594.516 1.453.516 2.234Zm0 0"/><clipPath id="a"><path d="M0 0h171v170.48H0Zm0 0"/></clipPath></defs><g clip-path="url(#a)"><path fill="none" stroke="#CCF" stroke-miterlimit="10" stroke-width=".399" d="M.2 170.281H170.28M.2 141.934h170.082M.2 113.586h170.082M.2 85.242h170.082M.2 56.895h170.082M.2 28.547h170.082M.2.21h170.082M.2 170.28V.2m28.348 170.082V.2M56.89 170.281V.2m28.347 170.082V.2m28.348 170.082V.2m28.348 170.082V.2m28.336 170.082V.2"/></g><path stroke="#000" stroke-miterlimit="10" stroke-width=".399" d="M31.379 141.934a2.832 2.832 0 0 0-2.832-2.836 2.836 2.836 0 1 0 0 5.672 2.832 2.832 0 0 0 2.832-2.836Zm0 0"/><path fill="none" stroke="#000" stroke-miterlimit="10" stroke-width=".399" d="M28.547 141.934H166.69"/><path d="M170.281 141.934c-1.062-.2-2.793-.797-3.988-1.493v2.989c1.195-.7 2.926-1.297 3.988-1.496"/><path fill="none" stroke="#000" stroke-miterlimit="10" stroke-width=".399" d="M28.547 141.934V3.785"/><path d="M28.547.2c-.2 1.062-.797 2.788-1.496 3.984h2.988c-.695-1.196-1.293-2.922-1.492-3.985"/><path fill="none" stroke="#000" stroke-miterlimit="10" stroke-width=".399" d="M56.89 144.77v-5.672"/><use xlink:href="#b" x="54.402" y="154.709"/><path fill="none" stroke="#000" stroke-miterlimit="10" stroke-width=".399" d="M85.238 144.77v-5.672"/><use xlink:href="#c" x="82.749" y="154.709"/><path fill="none" stroke="#000" stroke-miterlimit="10" stroke-width=".399" d="M113.586 144.77v-5.672"/><use xlink:href="#d" x="111.095" y="154.709"/><path fill="none" stroke="#000" stroke-miterlimit="10" stroke-width=".399" d="M141.934 144.77v-5.672"/><use xlink:href="#e" x="139.442" y="154.709"/><path fill="none" stroke="#000" stroke-miterlimit="10" stroke-width=".399" d="M25.71 113.586h5.669"/><use xlink:href="#b" x="17.21" y="116.798"/><path fill="none" stroke="#000" stroke-miterlimit="10" stroke-width=".399" d="M25.71 85.242h5.669"/><use xlink:href="#c" x="17.21" y="88.451"/><path fill="none" stroke="#000" stroke-miterlimit="10" stroke-width=".399" d="M25.71 56.895h5.669"/><use xlink:href="#d" x="17.21" y="60.104"/><path fill="none" stroke="#000" stroke-miterlimit="10" stroke-width=".399" d="M25.71 28.547h5.669"/><use xlink:href="#e" x="17.21" y="31.757"/><path fill="none" stroke="red" stroke-dasharray="2.98883 2.98883" stroke-miterlimit="10" stroke-width=".797" d="M85.238 141.934v-85.04H28.547"/><path fill="red" d="M87.508 56.895a2.268 2.268 0 1 0-4.534-.003 2.268 2.268 0 0 0 4.534.003Zm0 0"/><use xlink:href="#f" x="88.759" y="53.374" fill="red"/><use xlink:href="#g" x="202.146" y="62.219" fill="red"/><g fill="red"><use xlink:href="#h" x="209.618" y="62.219"/><use xlink:href="#c" x="213.484" y="62.219"/></g><use xlink:href="#i" x="220.688" y="62.219" fill="red"/><g fill="red"><use xlink:href="#d" x="225.671" y="62.219"/><use xlink:href="#j" x="230.653" y="62.219"/></g><path fill="none" stroke="red" stroke-dasharray="2.98883 2.98883" stroke-miterlimit="10" stroke-width=".797" d="M141.934 141.934v-28.348H28.547"/><path fill="red" d="M144.2 113.586a2.267 2.267 0 1 0-4.535.003 2.267 2.267 0 0 0 4.534-.003Zm0 0"/><use xlink:href="#k" x="145.453" y="110.068" fill="red"/><use xlink:href="#l" x="202.146" y="79.228" fill="red"/><g fill="red"><use xlink:href="#h" x="209.2" y="79.228"/><use xlink:href="#e" x="213.065" y="79.228"/></g><use xlink:href="#i" x="220.269" y="79.228" fill="red"/><g fill="red"><use xlink:href="#b" x="225.253" y="79.228"/><use xlink:href="#j" x="230.234" y="79.228"/></g><path fill="none" stroke="red" stroke-dasharray="2.98883 2.98883" stroke-miterlimit="10" stroke-width=".797" d="M113.586 141.934h-85.04"/><path fill="red" d="M115.855 141.934a2.268 2.268 0 0 0-2.27-2.266 2.268 2.268 0 1 0 0 4.535 2.269 2.269 0 0 0 2.27-2.27Zm0 0"/><use xlink:href="#m" x="117.106" y="138.217" fill="red"/><use xlink:href="#n" x="202.146" y="96.236" fill="red"/><g fill="red"><use xlink:href="#h" x="209.339" y="96.236"/><use xlink:href="#d" x="213.205" y="96.236"/></g><use xlink:href="#i" x="220.409" y="96.236" fill="red"/><g fill="red"><use xlink:href="#o" x="225.392" y="96.236"/><use xlink:href="#j" x="230.374" y="96.236"/></g><path fill="none" stroke="red" stroke-dasharray="2.98883 2.98883" stroke-miterlimit="10" stroke-width=".797" d="M28.547 141.934V28.547"/><path fill="red" d="M30.813 28.547a2.268 2.268 0 1 0-4.536 0 2.268 2.268 0 1 0 4.535 0Zm0 0"/><use xlink:href="#p" x="32.065" y="25.027" fill="red"/><use xlink:href="#q" x="202.146" y="113.244" fill="red"/><g fill="red"><use xlink:href="#h" x="209.758" y="113.244"/><use xlink:href="#o" x="213.623" y="113.244"/></g><use xlink:href="#i" x="220.827" y="113.244" fill="red"/><g fill="red"><use xlink:href="#e" x="225.811" y="113.244"/><use xlink:href="#j" x="230.792" y="113.244"/></g></svg>