<svg xmlns="http://www.w3.org/2000/svg" xmlns:xlink="http://www.w3.org/1999/xlink" width="150.84" height="55.64"><defs><path id="a" d="M1.578 2.156V-7.14c0-.14 0-.343-.187-.343-.203 0-.203.203-.203.343v9.297c0 .14 0 .344.203.344.187 0 .187-.203.187-.344Zm0 0"/><path id="e" d="M5.797-2.578h-.25c-.11 1.015-.25 2.266-2 2.266h-.813c-.468 0-.484-.063-.484-.391v-5.313c0-.343 0-.484.938-.484h.328v-.312c-.36.03-1.266.03-1.672.03-.39 0-1.172 0-1.516-.03v.312h.235c.765 0 .796.11.796.469v5.25c0 .36-.03.469-.796.469H.328V0h5.188Zm0 0"/><path id="f" d="M2.047-5.875c0-.594-.235-1.047-.656-1.047-.36 0-.532.266-.532.531 0 .266.172.532.532.532.187 0 .328-.11.39-.157.016-.03.032-.03.032-.03s.015.14.015.171a2.28 2.28 0 0 1-.687 1.656c-.125.125-.125.14-.125.172 0 .063.046.11.093.11.11 0 .938-.75.938-1.938Zm0 0"/><path id="g" d="M4.813-.89v-.563h-.25v.562c0 .579-.25.641-.36.641-.328 0-.36-.453-.36-.5v-1.984c0-.422 0-.813-.359-1.188-.39-.39-.89-.547-1.375-.547-.812 0-1.5.469-1.5 1.125 0 .297.204.469.454.469a.448.448 0 0 0 .468-.453c0-.125-.062-.453-.515-.453.265-.36.765-.469 1.078-.469.484 0 1.062.39 1.062 1.281v.36c-.515.03-1.219.062-1.844.359-.75.344-1 .86-1 1.297 0 .812.97 1.062 1.594 1.062.672 0 1.125-.406 1.313-.859.047.39.312.813.781.813.203 0 .813-.141.813-.954Zm-1.657-.5c0 .937-.719 1.28-1.172 1.28-.484 0-.89-.343-.89-.843 0-.547.406-1.375 2.062-1.438Zm0 0"/><path id="h" d="M5.328 0v-.312c-.516 0-.766 0-.766-.297v-1.907c0-.859 0-1.156-.312-1.515-.14-.172-.469-.375-1.047-.375-.734 0-1.203.422-1.484 1.047v-1.047l-1.406.11v.312c.703 0 .78.062.78.562V-.75c0 .438-.109.438-.78.438V0l1.14-.031L2.563 0v-.312c-.672 0-.782 0-.782-.438v-1.844c0-1.031.719-1.594 1.344-1.594.64 0 .75.532.75 1.11V-.75c0 .438-.11.438-.781.438V0l1.125-.031Zm0 0"/><path id="i" d="M4.828-4.031c0-.172-.11-.485-.5-.485-.203 0-.64.063-1.062.47a1.652 1.652 0 0 0-1.047-.36c-.938 0-1.625.687-1.625 1.453 0 .437.219.812.469 1.031-.125.14-.313.469-.313.828 0 .313.14.688.453.89-.61.157-.922.595-.922.985 0 .719.985 1.266 2.203 1.266 1.172 0 2.204-.5 2.204-1.281 0-.344-.125-.86-.641-1.141-.531-.266-1.11-.266-1.719-.266-.25 0-.672 0-.75-.015-.312-.047-.516-.344-.516-.672 0-.031 0-.266.157-.469.39.281.812.313 1 .313.922 0 1.61-.688 1.61-1.453 0-.376-.157-.735-.407-.97.36-.343.719-.39.89-.39 0 0 .079 0 .11.016-.11.031-.172.14-.172.265 0 .172.14.282.297.282a.28.28 0 0 0 .281-.297Zm-1.75 1.078c0 .265 0 .594-.156.844-.078.109-.313.39-.703.39-.875 0-.875-1-.875-1.218 0-.266.015-.594.156-.844.078-.11.313-.39.719-.39.86 0 .86.984.86 1.218ZM4.172.78c0 .547-.703 1.047-1.672 1.047C1.484 1.828.797 1.312.797.781c0-.453.375-.828.812-.843h.594c.86 0 1.969 0 1.969.843Zm0 0"/><path id="j" d="M2.547 0v-.312c-.672 0-.781 0-.781-.438v-6.172l-1.438.11v.312c.703 0 .781.063.781.563V-.75c0 .438-.109.438-.78.438V0l1.109-.031Zm0 0"/><path id="k" d="M4.14-1.187c0-.094-.077-.125-.14-.125-.078 0-.11.062-.125.14C3.531-.14 2.625-.14 2.531-.14c-.5 0-.89-.296-1.125-.671-.297-.47-.297-1.125-.297-1.485h2.782c.218 0 .25 0 .25-.219 0-.984-.547-1.953-1.782-1.953-1.156 0-2.078 1.032-2.078 2.282C.281-.86 1.328.108 2.47.108 3.688.11 4.14-1 4.14-1.187Zm-.656-1.329H1.11C1.172-4 2.016-4.25 2.36-4.25c1.016 0 1.125 1.344 1.125 1.734Zm0 0"/><path id="b" d="M1.781-1.14C1.391-.485 1-.345.563-.314c-.125.016-.22.016-.22.204 0 .062.063.109.141.109.266 0 .579-.031.844-.031.344 0 .688.031 1 .031.063 0 .188 0 .188-.187 0-.11-.079-.125-.157-.125-.218-.016-.468-.094-.468-.344 0-.125.062-.235.14-.375l.766-1.266h2.5c.016.203.156 1.563.156 1.656 0 .297-.516.329-.719.329-.14 0-.234 0-.234.203C4.5 0 4.61 0 4.64 0c.407 0 .829-.031 1.235-.031.25 0 .89.031 1.14.031.048 0 .173 0 .173-.203 0-.11-.094-.11-.235-.11-.61 0-.61-.062-.64-.359l-.61-6.219c-.016-.203-.016-.25-.187-.25-.157 0-.203.079-.266.172Zm1.203-1.47 1.954-3.296.328 3.297Zm0 0"/><path id="c" d="M1.594-.781c-.094.39-.125.469-.907.469-.171 0-.265 0-.265.203C.422 0 .516 0 .688 0H4.25C5.828 0 7-1.172 7-2.156c0-.719-.578-1.297-1.547-1.406 1.031-.188 2.078-.922 2.078-1.876 0-.734-.656-1.375-1.843-1.375h-3.36c-.187 0-.281 0-.281.204 0 .109.094.109.281.109.016 0 .203 0 .375.016.172.03.266.03.266.172 0 .03-.016.062-.031.187Zm1.5-2.875.625-2.469c.094-.344.11-.375.531-.375h1.297c.875 0 1.078.594 1.078 1.031 0 .875-.86 1.813-2.062 1.813ZM2.656-.312h-.219c-.109-.016-.14-.032-.14-.11 0-.031 0-.047.062-.219l.688-2.78h1.875c.953 0 1.156.733 1.156 1.155 0 .985-.89 1.954-2.078 1.954Zm0 0"/><path id="d" d="M7.375-4.344c0-1.61-1.062-2.687-2.547-2.687-2.14 0-4.344 2.265-4.344 4.594C.484-.782 1.61.219 3.047.219c2.11 0 4.328-2.188 4.328-4.563ZM3.094-.047c-.985 0-1.672-.797-1.672-2.11 0-.452.14-1.905.906-3.062.688-1.047 1.656-1.562 2.453-1.562.813 0 1.703.562 1.703 2.047 0 .718-.265 2.265-1.25 3.5-.484.609-1.296 1.187-2.14 1.187Zm0 0"/><path id="l" d="m14.36-5.734.062-.235-7.235-1.734L-.03-5.97l.062.235L7.203-7.11Zm0 0"/></defs><path fill="none" stroke="#000" stroke-miterlimit="10" stroke-width=".399" d="M99.758 6.559 14.715 27.82l85.043 21.258"/><path fill="red" d="M28.465 24.383a14.158 14.158 0 0 1 0 7.336l-13.75-3.899Zm0 0"/><use xlink:href="#a" x="70.025" y="16.136"/><use xlink:href="#b" x="60.418" y="10.125"/><use xlink:href="#a" x="70.025" y="44.483"/><use xlink:href="#c" x="59.833" y="52.32"/><use xlink:href="#d" x="3.32" y="31.223"/><g fill="red"><use xlink:href="#e" x="89.103" y="31.788"/><use xlink:href="#f" x="95.33" y="31.788"/><use xlink:href="#g" x="98.099" y="31.788"/><use xlink:href="#h" x="103.081" y="31.788"/><use xlink:href="#i" x="108.62" y="31.788"/><use xlink:href="#j" x="113.601" y="31.788"/><use xlink:href="#k" x="116.371" y="31.788"/></g><use xlink:href="#l" x="128.619" y="29.269" fill="red"/><g fill="red"><use xlink:href="#b" x="124.112" y="31.788"/><use xlink:href="#d" x="131.584" y="31.788"/></g><use xlink:href="#c" x="139.444" y="31.788" fill="red"/></svg>