<svg xmlns="http://www.w3.org/2000/svg" xmlns:xlink="http://www.w3.org/1999/xlink" width="305.2" height="75.44"><defs><path id="a" d="M1.578-.781c-.094.39-.11.469-.906.469-.156 0-.266 0-.266.187C.406 0 .484 0 .672 0h3.312c2.063 0 4.032-2.11 4.032-4.281 0-1.407-.844-2.532-2.344-2.532H2.328c-.187 0-.297 0-.297.188 0 .125.078.125.281.125.126 0 .313.016.422.016.172.03.22.046.22.172 0 .03 0 .062-.032.187Zm2.156-5.344c.094-.344.11-.375.547-.375h1.063c.968 0 1.797.531 1.797 1.844 0 .484-.188 2.125-1.047 3.218A2.919 2.919 0 0 1 3.797-.312H2.453c-.094-.016-.125-.032-.125-.11 0-.031 0-.047.047-.219Zm0 0"/><path id="b" d="M3.016-3.234h.968c.75 0 .829.156.829.437 0 .078 0 .188-.063.5-.031.047-.031.078-.031.11 0 .078.062.109.11.109.109 0 .109-.031.155-.203l.547-2.172c.032-.11.032-.125.032-.156a.117.117 0 0 0-.125-.11c-.094 0-.11.047-.141.219-.219.766-.438.953-1.297.953h-.906l.64-2.531c.094-.36.11-.39.547-.39h1.313c1.218 0 1.453.327 1.453 1.093 0 .234 0 .266-.031.547C7-4.703 7-4.688 7-4.656c0 .047.031.125.125.125.11 0 .11-.063.125-.25l.203-1.735c.031-.265-.016-.265-.266-.265h-4.89c-.188 0-.297 0-.297.203 0 .11.094.11.281.11.375 0 .656 0 .656.171 0 .047 0 .063-.062.25L1.563-.78c-.094.39-.11.469-.907.469-.172 0-.281 0-.281.187C.375 0 .5 0 .531 0c.282 0 1.031-.031 1.313-.031C2.172-.031 3 0 3.328 0c.094 0 .203 0 .203-.187 0-.079-.047-.11-.047-.11-.03-.016-.062-.016-.28-.016-.22 0-.267 0-.517-.015-.296-.031-.328-.078-.328-.203 0-.016 0-.078.047-.219Zm0 0"/><path id="c" d="M7.063-2.328c.015-.047.046-.11.046-.14 0 0 0-.11-.125-.11-.093 0-.109.062-.125.125-.656 1.469-1.015 2.14-2.718 2.14H2.468c-.109-.015-.14-.03-.14-.109 0-.031 0-.047.047-.219l.688-2.734h.984c.844 0 .844.219.844.469 0 .062 0 .187-.063.484-.016.047-.031.078-.031.11 0 .046.031.109.125.109.078 0 .11-.047.156-.203l.563-2.328c0-.063-.047-.11-.125-.11-.079 0-.11.063-.125.172-.22.766-.391 1-1.313 1h-.937l.593-2.406c.094-.36.11-.39.547-.39h1.407c1.203 0 1.515.28 1.515 1.109 0 .234 0 .25-.047.53 0 .048-.015.126-.015.173 0 .047.03.125.125.125.109 0 .125-.063.14-.25l.203-1.735c.032-.265-.015-.265-.265-.265H2.297c-.188 0-.297 0-.297.203 0 .11.094.11.281.11.375 0 .656 0 .656.171 0 .047 0 .063-.062.25L1.563-.78c-.094.39-.11.469-.907.469-.172 0-.281 0-.281.187C.375 0 .469 0 .656 0h5.172c.234 0 .25-.016.313-.172Zm0 0"/><path id="d" d="m.281-5.89.031.156.032.062.078.016.172-.032.719-.078 3.187-.39 4.938-.61 1.453-.187.468-.063.282-.015.265.015.5.063 1.438.187 4.36.532 3.624.453.813.093.203.032.078-.016.031-.062.031-.157-2.187-.359-5-.828L13.25-7.5l-.844-.14-.484-.063h-.64l-.423.062-.921.157-2.532.422-4.937.812Zm0 0"/><path id="o" d="m.313-7.734-.032.25 2.188.359 4.937.813 2.532.421.921.157.422.062h.64l.485-.062.844-.141 2.547-.422 5-.828 2.187-.36-.03-.25-2.5.313-4.688.578-2.797.344-.875.11-.453.046-.47-.047-.874-.109L7.5-6.844l-4.687-.578-1.61-.203Zm0 0"/><path id="e" d="M3.297 2.39c0-.03 0-.046-.172-.218C1.891.922 1.563-.968 1.563-2.5c0-1.734.375-3.469 1.609-4.703.125-.125.125-.14.125-.172 0-.078-.031-.11-.094-.11-.11 0-1 .688-1.594 1.954C1.11-4.438.984-3.328.984-2.5c0 .781.11 1.984.657 3.125C2.25 1.844 3.094 2.5 3.203 2.5c.063 0 .094-.031.094-.11Zm0 0"/><path id="f" d="M4.813-.89v-.563h-.25v.562c0 .579-.25.641-.36.641-.328 0-.36-.453-.36-.5v-1.984c0-.422 0-.813-.359-1.188-.39-.39-.89-.547-1.375-.547-.812 0-1.5.469-1.5 1.125 0 .297.204.469.454.469a.448.448 0 0 0 .468-.453c0-.125-.062-.453-.515-.453.265-.36.765-.469 1.078-.469.484 0 1.062.39 1.062 1.281v.36c-.515.03-1.219.062-1.844.359-.75.344-1 .86-1 1.297 0 .812.97 1.062 1.594 1.062.672 0 1.125-.406 1.313-.859.047.39.312.813.781.813.203 0 .813-.141.813-.954Zm-1.657-.5c0 .937-.719 1.28-1.172 1.28-.484 0-.89-.343-.89-.843 0-.547.406-1.375 2.062-1.438Zm0 0"/><path id="g" d="M5.328 0v-.312c-.516 0-.766 0-.766-.297v-1.907c0-.859 0-1.156-.312-1.515-.14-.172-.469-.375-1.047-.375-.734 0-1.203.422-1.484 1.047v-1.047l-1.406.11v.312c.703 0 .78.062.78.562V-.75c0 .438-.109.438-.78.438V0l1.14-.031L2.563 0v-.312c-.672 0-.782 0-.782-.438v-1.844c0-1.031.719-1.594 1.344-1.594.64 0 .75.532.75 1.11V-.75c0 .438-.11.438-.781.438V0l1.125-.031Zm0 0"/><path id="h" d="M4.828-4.031c0-.172-.11-.485-.5-.485-.203 0-.64.063-1.062.47a1.652 1.652 0 0 0-1.047-.36c-.938 0-1.625.687-1.625 1.453 0 .437.219.812.469 1.031-.125.14-.313.469-.313.828 0 .313.14.688.453.89-.61.157-.922.595-.922.985 0 .719.985 1.266 2.203 1.266 1.172 0 2.204-.5 2.204-1.281 0-.344-.125-.86-.641-1.141-.531-.266-1.11-.266-1.719-.266-.25 0-.672 0-.75-.015-.312-.047-.516-.344-.516-.672 0-.031 0-.266.157-.469.39.281.812.313 1 .313.922 0 1.61-.688 1.61-1.453 0-.376-.157-.735-.407-.97.36-.343.719-.39.89-.39 0 0 .079 0 .11.016-.11.031-.172.14-.172.265 0 .172.14.282.297.282a.28.28 0 0 0 .281-.297Zm-1.75 1.078c0 .265 0 .594-.156.844-.078.109-.313.39-.703.39-.875 0-.875-1-.875-1.218 0-.266.015-.594.156-.844.078-.11.313-.39.719-.39.86 0 .86.984.86 1.218ZM4.172.78c0 .547-.703 1.047-1.672 1.047C1.484 1.828.797 1.312.797.781c0-.453.375-.828.812-.843h.594c.86 0 1.969 0 1.969.843Zm0 0"/><path id="i" d="M2.547 0v-.312c-.672 0-.781 0-.781-.438v-6.172l-1.438.11v.312c.703 0 .781.063.781.563V-.75c0 .438-.109.438-.78.438V0l1.109-.031Zm0 0"/><path id="j" d="M4.14-1.187c0-.094-.077-.125-.14-.125-.078 0-.11.062-.125.14C3.531-.14 2.625-.14 2.531-.14c-.5 0-.89-.296-1.125-.671-.297-.47-.297-1.125-.297-1.485h2.782c.218 0 .25 0 .25-.219 0-.984-.547-1.953-1.782-1.953-1.156 0-2.078 1.032-2.078 2.282C.281-.86 1.328.108 2.47.108 3.688.11 4.14-1 4.14-1.187Zm-.656-1.329H1.11C1.172-4 2.016-4.25 2.36-4.25c1.016 0 1.125 1.344 1.125 1.734Zm0 0"/><path id="k" d="M3.594-1.281c0-.516-.297-.828-.422-.938-.328-.328-.719-.406-1.14-.484-.563-.11-1.22-.235-1.22-.813 0-.359.25-.765 1.11-.765 1.094 0 1.156.906 1.172 1.203 0 .094.11.094.11.094.14 0 .14-.047.14-.235v-1.015c0-.157 0-.235-.11-.235-.046 0-.078 0-.203.125-.031.032-.125.125-.172.157-.375-.282-.78-.282-.937-.282-1.219 0-1.594.672-1.594 1.235 0 .343.156.625.422.843.328.25.61.313 1.328.454.219.046 1.031.203 1.031.921 0 .5-.343.907-1.125.907-.843 0-1.203-.563-1.39-1.422-.031-.125-.031-.157-.14-.157-.126 0-.126.063-.126.235v1.328c0 .172 0 .234.11.234C.484.11.5.094.688-.094.703-.109.703-.125.89-.312c.437.406.89.421 1.093.421 1.141 0 1.61-.671 1.61-1.39Zm0 0"/><path id="l" d="M2.469 0v-.312c-.672 0-.703-.047-.703-.438v-3.656l-1.391.11v.312c.64 0 .734.062.734.547V-.75c0 .438-.109.438-.78.438V0l1.093-.031c.36 0 .703.015 1.047.031Zm-.563-6.016a.523.523 0 0 0-.515-.53.54.54 0 0 0-.547.53c0 .266.234.516.531.516a.513.513 0 0 0 .531-.516Zm0 0"/><path id="m" d="M3.313-1.234v-.563h-.25v.547c0 .734-.297 1.11-.672 1.11-.672 0-.672-.907-.672-1.079v-2.765h1.437v-.313H1.72v-1.828h-.25c0 .813-.297 1.875-1.281 1.922v.219h.843v2.75c0 1.218.938 1.343 1.297 1.343.703 0 .985-.703.985-1.343Zm0 0"/><path id="n" d="M2.875-2.5c0-.766-.11-1.969-.656-3.11C1.625-6.827.766-7.483.672-7.483a.107.107 0 0 0-.11.109c0 .031 0 .047.188.234.984.985 1.547 2.563 1.547 4.641 0 1.719-.36 3.469-1.594 4.719-.14.125-.14.14-.14.172 0 .062.046.109.109.109.094 0 1-.687 1.578-1.953.516-1.094.625-2.203.625-3.047Zm0 0"/><path id="p" d="M3.625-3.797c0-.312-.312-.61-.734-.61-.735 0-1.094.673-1.22 1.095v-1.094l-1.39.11v.312c.703 0 .782.062.782.562V-.75c0 .438-.11.438-.782.438V0l1.14-.031c.391 0 .86 0 1.267.031v-.312h-.22c-.734 0-.75-.11-.75-.47v-1.53c0-.985.423-1.876 1.173-1.876.062 0 .093 0 .109.016-.031 0-.234.125-.234.39 0 .266.218.423.437.423a.421.421 0 0 0 .422-.438Zm0 0"/></defs><path fill="red" d="m150.426 37.422 42.523-10.633a42.571 42.571 0 0 1 0 22.012Zm0 0"/><path fill="#0C0" d="m150.426 37.422 34.02-8.504C179.581 10.77 160.93.004 142.78 4.863c-18.144 4.864-28.914 23.516-24.05 41.664 4.859 18.145 23.511 28.914 41.66 24.051a34.027 34.027 0 0 0 24.054-24.05Zm0 0"/><path fill="none" stroke="#000" stroke-miterlimit="10" stroke-width=".399" d="M278 5.527 150.426 37.422 278 69.316M235.477 11.906v8.504M235.477 54.434v8.504"/><use xlink:href="#a" x="238.994" y="12.64"/><use xlink:href="#b" x="238.994" y="69.013"/><use xlink:href="#c" x="138.975" y="40.826"/><use xlink:href="#d" x="209.722" y="38.652" fill="red"/><use xlink:href="#a" x="209.22" y="41.172" fill="red"/><use xlink:href="#c" x="217.728" y="41.172" fill="red"/><use xlink:href="#b" x="225.658" y="41.172" fill="red"/><g fill="red"><use xlink:href="#e" x="236.781" y="41.172"/><use xlink:href="#f" x="240.657" y="41.172"/><use xlink:href="#g" x="245.638" y="41.172"/><use xlink:href="#h" x="251.177" y="41.172"/><use xlink:href="#i" x="256.159" y="41.172"/><use xlink:href="#j" x="258.928" y="41.172"/></g><g fill="red"><use xlink:href="#k" x="266.669" y="41.172"/><use xlink:href="#f" x="270.595" y="41.172"/><use xlink:href="#l" x="275.576" y="41.172"/><use xlink:href="#i" x="278.346" y="41.172"/><use xlink:href="#i" x="281.115" y="41.172"/><use xlink:href="#f" x="283.885" y="41.172"/><use xlink:href="#g" x="288.866" y="41.172"/></g><g fill="red"><use xlink:href="#m" x="294.136" y="41.172"/><use xlink:href="#n" x="298.012" y="41.172"/></g><use xlink:href="#o" x="3.82" y="38.652" fill="#00B200"/><use xlink:href="#a" x="3.319" y="41.172" fill="#00B200"/><use xlink:href="#c" x="11.827" y="41.172" fill="#00B200"/><use xlink:href="#b" x="19.757" y="41.172" fill="#00B200"/><g fill="#00B200"><use xlink:href="#e" x="30.88" y="41.172"/><use xlink:href="#f" x="34.755" y="41.172"/><use xlink:href="#g" x="39.737" y="41.172"/><use xlink:href="#h" x="45.276" y="41.172"/><use xlink:href="#i" x="50.257" y="41.172"/><use xlink:href="#j" x="53.027" y="41.172"/></g><g fill="#00B200"><use xlink:href="#p" x="60.768" y="41.172"/><use xlink:href="#j" x="64.673" y="41.172"/><use xlink:href="#g" x="69.097" y="41.172"/></g><g fill="#00B200"><use xlink:href="#m" x="74.367" y="41.172"/><use xlink:href="#p" x="78.242" y="41.172"/><use xlink:href="#f" x="82.148" y="41.172"/><use xlink:href="#g" x="87.129" y="41.172"/></g><g fill="#00B200"><use xlink:href="#m" x="92.389" y="41.172"/><use xlink:href="#n" x="96.265" y="41.172"/></g></svg>