<svg xmlns="http://www.w3.org/2000/svg" xmlns:xlink="http://www.w3.org/1999/xlink" width="113.78" height="39.28"><defs><path id="b" d="M1.578 2.156V-7.14c0-.14 0-.343-.187-.343-.203 0-.203.203-.203.343v9.297c0 .14 0 .344.203.344.187 0 .187-.203.187-.344Zm0 0"/><path id="c" d="M7.14 0v-.312H6.97c-.594 0-.735-.063-.844-.391L3.969-6.937c-.047-.125-.078-.204-.235-.204-.156 0-.187.063-.234.204L1.438-.984C1.25-.47.859-.312.313-.312V0l1.015-.031L2.484 0v-.312c-.5 0-.75-.25-.75-.5 0-.032.016-.141.016-.157l.469-1.297h2.453L5.203-.75a.58.58 0 0 1 .031.14c0 .298-.562.298-.828.298V0c.36-.031 1.063-.031 1.438-.031ZM4.564-2.578H2.328l1.11-3.25Zm0 0"/><path id="d" d="M6.484-1.828c0-.86-.812-1.61-1.921-1.734.968-.188 1.656-.829 1.656-1.563 0-.86-.922-1.687-2.219-1.687H.36v.312h.234c.765 0 .797.11.797.469v5.25c0 .36-.032.469-.797.469H.359V0h3.907c1.328 0 2.218-.89 2.218-1.828ZM5.25-5.125c0 .64-.484 1.469-1.594 1.469H2.22v-2.438c0-.343.015-.406.484-.406h1.235c.968 0 1.312.844 1.312 1.375Zm.25 3.297c0 .703-.531 1.516-1.547 1.516h-1.25c-.469 0-.484-.063-.484-.391v-2.719h1.875c.984 0 1.406.922 1.406 1.594Zm0 0"/><clipPath id="a"><path d="M0 0h113.781v37H0Zm0 0"/></clipPath></defs><g clip-path="url(#a)"><path fill="none" stroke="#000" stroke-miterlimit="10" stroke-width=".399" d="M.2 30.977 113.585 2.629"/></g><use xlink:href="#b" x="21.492" y="27.797"/><use xlink:href="#b" x="89.525" y="10.789"/><use xlink:href="#c" x="26.396" y="35.96"/><use xlink:href="#d" x="94.429" y="18.622"/></svg>