<svg xmlns="http://www.w3.org/2000/svg" xmlns:xlink="http://www.w3.org/1999/xlink" width="265.38" height="92.97"><defs><path id="a" d="M7.14 0v-.312H6.97c-.594 0-.735-.063-.844-.391L3.969-6.937c-.047-.125-.078-.204-.235-.204-.156 0-.187.063-.234.204L1.438-.984C1.25-.47.859-.312.313-.312V0l1.015-.031L2.484 0v-.312c-.5 0-.75-.25-.75-.5 0-.032.016-.141.016-.157l.469-1.297h2.453L5.203-.75a.58.58 0 0 1 .031.14c0 .298-.562.298-.828.298V0c.36-.031 1.063-.031 1.438-.031ZM4.564-2.578H2.328l1.11-3.25Zm0 0"/><path id="b" d="M6.484-1.828c0-.86-.812-1.61-1.921-1.734.968-.188 1.656-.829 1.656-1.563 0-.86-.922-1.687-2.219-1.687H.36v.312h.234c.765 0 .797.11.797.469v5.25c0 .36-.032.469-.797.469H.359V0h3.907c1.328 0 2.218-.89 2.218-1.828ZM5.25-5.125c0 .64-.484 1.469-1.594 1.469H2.22v-2.438c0-.343.015-.406.484-.406h1.235c.968 0 1.312.844 1.312 1.375Zm.25 3.297c0 .703-.531 1.516-1.547 1.516h-1.25c-.469 0-.484-.063-.484-.391v-2.719h1.875c.984 0 1.406.922 1.406 1.594Zm0 0"/><path id="c" d="M6.625-2.328c0-.094 0-.172-.125-.172-.11 0-.11.063-.125.172C6.297-.906 5.235-.094 4.141-.094c-.61 0-2.563-.328-2.563-3.312 0-2.969 1.953-3.313 2.563-3.313 1.078 0 1.968.907 2.172 2.36.015.14.015.172.156.172.156 0 .156-.032.156-.235v-2.36c0-.171 0-.25-.11-.25-.03 0-.077 0-.156.126l-.5.734c-.359-.36-.875-.86-1.828-.86-1.875 0-3.468 1.595-3.468 3.626C.563-1.344 2.172.219 4.03.219c1.625 0 2.594-1.39 2.594-2.547Zm0 0"/><path id="d" d="M7.047-3.344C7.047-5.25 5.703-6.812 4-6.812H.344v.312h.25c.765 0 .781.11.781.469v5.25c0 .36-.016.469-.781.469h-.25V0H4c1.672 0 3.047-1.469 3.047-3.344Zm-1 0c0 1.094-.188 1.703-.547 2.188a2.192 2.192 0 0 1-1.766.843H2.72c-.469 0-.485-.062-.485-.39v-5.39c0-.344.016-.407.485-.407h1c.625 0 1.312.219 1.812.922.438.594.516 1.453.516 2.234Zm0 0"/><path id="e" d="M6.5-2.578h-.25C6-1.031 5.766-.312 4.063-.312H2.734c-.468 0-.484-.063-.484-.391v-2.672h.89c.97 0 1.079.328 1.079 1.172h.25v-2.64h-.25c0 .859-.11 1.171-1.078 1.171H2.25v-2.406c0-.328.016-.39.484-.39h1.282c1.53 0 1.797.546 1.953 1.937h.25l-.282-2.25H.329v.312h.235c.765 0 .796.11.796.469v5.219c0 .36-.03.469-.796.469H.328V0h5.75Zm0 0"/><path id="f" d="m6.078-4.531-.281-2.25H.328v.312h.235c.765 0 .796.11.796.469v5.219c0 .36-.03.469-.796.469H.328V0c.344-.031 1.125-.031 1.516-.031.406 0 1.312 0 1.672.031v-.312h-.328c-.938 0-.938-.125-.938-.47v-2.452h.844c.969 0 1.062.312 1.062 1.156h.25v-2.64h-.25c0 .843-.093 1.171-1.062 1.171H2.25v-2.531c0-.328.016-.39.484-.39h1.188c1.5 0 1.75.562 1.906 1.937Zm0 0"/><path id="g" d="M7.14 0v-.312h-.25c-.765 0-.78-.11-.78-.47v-5.25c0-.359.015-.468.78-.468h.25v-.312c-.359.03-1.093.03-1.468.03s-1.125 0-1.469-.03v.312h.234c.766 0 .782.11.782.469v2.328H2.25v-2.328c0-.36.016-.469.781-.469h.235v-.312c-.344.03-1.078.03-1.47.03-.374 0-1.124 0-1.468-.03v.312h.235c.765 0 .796.11.796.469v5.25c0 .36-.03.469-.796.469H.328V0c.344-.031 1.094-.031 1.469-.031s1.125 0 1.469.031v-.312H3.03c-.765 0-.781-.11-.781-.47V-3.39h2.969v2.61c0 .36-.016.469-.782.469h-.234V0c.344-.031 1.078-.031 1.453-.031.39 0 1.125 0 1.485.031Zm0 0"/><path id="h" d="M5.469-2.297c.156 0 .343 0 .343-.203 0-.187-.187-.187-.343-.187H1.234C1.36-4.032 2.5-4.985 3.906-4.985H5.47c.156 0 .343 0 .343-.203 0-.204-.187-.204-.343-.204H3.89C2.188-5.39.828-4.094.828-2.5.828-.89 2.188.406 3.891.406h1.578c.156 0 .343 0 .343-.203S5.626 0 5.47 0H3.906C2.5 0 1.36-.953 1.234-2.297Zm0 0"/><path id="i" d="M2.547 2.5v-.406h-.969v-9.172h.969v-.406H1.172V2.5Zm0 0"/><path id="j" d="M1.578-7.484H.218v.406h.97v9.172h-.97V2.5h1.36Zm0 0"/><path id="l" d="M2.875-2.5c0-.766-.11-1.969-.656-3.11C1.625-6.827.766-7.483.672-7.483a.107.107 0 0 0-.11.109c0 .031 0 .047.188.234.984.985 1.547 2.563 1.547 4.641 0 1.719-.36 3.469-1.594 4.719-.14.125-.14.14-.14.172 0 .062.046.109.109.109.094 0 1-.687 1.578-1.953.516-1.094.625-2.203.625-3.047Zm0 0"/><path id="k" d="M4.375-7.094c.047-.14.047-.172.047-.187 0-.11-.078-.203-.188-.203-.078 0-.14.03-.171.093l-3.47 9.5c-.046.141-.046.172-.046.188 0 .11.094.203.203.203.125 0 .156-.078.219-.25Zm0 0"/></defs><path fill="none" stroke="#000" stroke-miterlimit="10" stroke-width=".399" d="m19.98 53.488 70.868-28.347M76.676 81.832 167.386.195M17.148 56.32l5.668-5.668M22.816 56.32l-5.668-5.668M88.012 27.977l5.672-5.672M93.684 27.977l-5.672-5.672M73.84 84.668 79.512 79M79.512 84.668 73.84 79M130.535 33.645l5.668-5.672M136.203 33.645l-5.668-5.672"/><use xlink:href="#a" x="8.99" y="49.967"/><use xlink:href="#b" x="80.275" y="21.62"/><use xlink:href="#c" x="65.962" y="78.095"/><use xlink:href="#d" x="122.237" y="27.29"/><path fill="none" stroke="red" stroke-miterlimit="10" stroke-width=".399" d="m59.668 39.313 5.668-5.668M65.336 39.313l-5.668-5.668M147.543 18.336l5.668-5.668M153.21 18.336l-5.667-5.668M11.477 84.668 17.148 79M17.148 84.668 11.477 79"/><use xlink:href="#e" x="52.198" y="32.959" fill="red"/><use xlink:href="#f" x="140.351" y="11.982" fill="red"/><use xlink:href="#g" x="3.32" y="78.314" fill="red"/><use xlink:href="#e" x="221.929" y="27.631"/><use xlink:href="#h" x="231.481" y="27.631"/><use xlink:href="#i" x="240.89" y="27.631"/><use xlink:href="#a" x="243.657" y="27.631"/><use xlink:href="#b" x="251.129" y="27.631"/><use xlink:href="#j" x="258.183" y="27.631"/><use xlink:href="#g" x="221.929" y="47.473"/><use xlink:href="#k" x="233.275" y="47.473"/><use xlink:href="#h" x="232.168" y="47.473"/><use xlink:href="#i" x="241.577" y="47.473"/><use xlink:href="#a" x="244.345" y="47.473"/><use xlink:href="#b" x="251.817" y="47.473"/><use xlink:href="#j" x="258.87" y="47.473"/><use xlink:href="#f" x="221.929" y="67.316"/><use xlink:href="#k" x="232.309" y="67.316"/><use xlink:href="#h" x="231.202" y="67.316"/><use xlink:href="#i" x="240.611" y="67.316"/><use xlink:href="#c" x="243.378" y="67.316"/><use xlink:href="#d" x="250.571" y="67.316"/><use xlink:href="#j" x="258.183" y="67.316"/><use xlink:href="#f" x="221.929" y="87.159"/><use xlink:href="#h" x="231.202" y="87.159"/><use xlink:href="#i" x="240.611" y="87.159"/><use xlink:href="#c" x="243.378" y="87.159"/><use xlink:href="#d" x="250.571" y="87.159"/><use xlink:href="#l" x="258.183" y="87.159"/></svg>