<svg xmlns="http://www.w3.org/2000/svg" xmlns:xlink="http://www.w3.org/1999/xlink" width="132.4" height="50.51"><defs><path id="a" d="M1.578 2.156V-7.14c0-.14 0-.343-.187-.343-.203 0-.203.203-.203.343v9.297c0 .14 0 .344.203.344.187 0 .187-.203.187-.344Zm0 0"/><path id="b" d="M7.14-6.5v-.312l-1.171.03-1.188-.03v.312c1.016 0 1.016.469 1.016.734v3.47c0 1.405-.969 2.202-1.906 2.202-.47 0-1.641-.25-1.641-2.14v-3.797c0-.36.016-.469.781-.469h.235v-.312c-.344.03-1.078.03-1.47.03-.374 0-1.124 0-1.468-.03v.312h.235c.765 0 .796.11.796.469v3.765C1.36-.875 2.516.22 3.875.22c1.14 0 2.031-.922 2.203-2.063.031-.203.031-.297.031-.687V-5.72c0-.328 0-.781 1.032-.781Zm0 0"/><path id="c" d="M7.281-6.5v-.312c-.312.03-.718.03-.968.03l-1.141-.03v.312c.516.016.734.266.734.5 0 .078-.031.14-.047.203L4.031-1 2.125-6.031c-.062-.14-.062-.172-.062-.172 0-.297.562-.297.812-.297v-.312c-.36.03-1.047.03-1.422.03l-1.265-.03v.312c.656 0 .843 0 .984.375L3.484 0c.063.188.11.219.25.219.157 0 .188-.047.235-.188l2.219-5.86c.14-.374.406-.655 1.093-.671Zm0 0"/></defs><path fill="none" stroke="#000" stroke-miterlimit="10" stroke-width=".399" d="M4.707 36.645 118.094 8.3"/><use xlink:href="#a" x="3.321" y="39.137"/><use xlink:href="#a" x="116.708" y="10.79"/><use xlink:href="#b" x="8.225" y="46.97"/><use xlink:href="#c" x="121.612" y="18.624"/></svg>