<svg xmlns="http://www.w3.org/2000/svg" xmlns:xlink="http://www.w3.org/1999/xlink" width="312.07" height="141.11"><defs><path id="b" d="M7.14 0v-.312H6.97c-.594 0-.735-.063-.844-.391L3.969-6.937c-.047-.125-.078-.204-.235-.204-.156 0-.187.063-.234.204L1.438-.984C1.25-.47.859-.312.313-.312V0l1.015-.031L2.484 0v-.312c-.5 0-.75-.25-.75-.5 0-.032.016-.141.016-.157l.469-1.297h2.453L5.203-.75a.58.58 0 0 1 .031.14c0 .298-.562.298-.828.298V0c.36-.031 1.063-.031 1.438-.031ZM4.564-2.578H2.328l1.11-3.25Zm0 0"/><path id="c" d="M6.484-1.828c0-.86-.812-1.61-1.921-1.734.968-.188 1.656-.829 1.656-1.563 0-.86-.922-1.687-2.219-1.687H.36v.312h.234c.765 0 .797.11.797.469v5.25c0 .36-.032.469-.797.469H.359V0h3.907c1.328 0 2.218-.89 2.218-1.828ZM5.25-5.125c0 .64-.484 1.469-1.594 1.469H2.22v-2.438c0-.343.015-.406.484-.406h1.235c.968 0 1.312.844 1.312 1.375Zm.25 3.297c0 .703-.531 1.516-1.547 1.516h-1.25c-.469 0-.484-.063-.484-.391v-2.719h1.875c.984 0 1.406.922 1.406 1.594Zm0 0"/><path id="d" d="M6.625-2.328c0-.094 0-.172-.125-.172-.11 0-.11.063-.125.172C6.297-.906 5.235-.094 4.141-.094c-.61 0-2.563-.328-2.563-3.312 0-2.969 1.953-3.313 2.563-3.313 1.078 0 1.968.907 2.172 2.36.015.14.015.172.156.172.156 0 .156-.032.156-.235v-2.36c0-.171 0-.25-.11-.25-.03 0-.077 0-.156.126l-.5.734c-.359-.36-.875-.86-1.828-.86-1.875 0-3.468 1.595-3.468 3.626C.563-1.344 2.172.219 4.03.219c1.625 0 2.594-1.39 2.594-2.547Zm0 0"/><path id="e" d="M7.047-3.344C7.047-5.25 5.703-6.812 4-6.812H.344v.312h.25c.765 0 .781.11.781.469v5.25c0 .36-.016.469-.781.469h-.25V0H4c1.672 0 3.047-1.469 3.047-3.344Zm-1 0c0 1.094-.188 1.703-.547 2.188a2.192 2.192 0 0 1-1.766.843H2.72c-.469 0-.485-.062-.485-.39v-5.39c0-.344.016-.407.485-.407h1c.625 0 1.312.219 1.812.922.438.594.516 1.453.516 2.234Zm0 0"/><path id="g" d="M5.25 0v-.312c-.687 0-.781-.063-.781-.563v-6.047l-1.422.11v.312c.687 0 .765.063.765.563v2.156a1.582 1.582 0 0 0-1.25-.625c-1.171 0-2.218.984-2.218 2.265 0 1.266.969 2.25 2.11 2.25.64 0 1.077-.343 1.327-.656V.11ZM3.781-1.172c0 .172 0 .188-.11.36-.296.484-.733.703-1.171.703-.453 0-.812-.266-1.047-.641-.25-.406-.281-.969-.281-1.39 0-.36.016-.954.297-1.407.218-.312.593-.64 1.14-.64.344 0 .766.156 1.063.593.11.172.11.188.11.375Zm0 0"/><path id="h" d="M4.14-1.187c0-.094-.077-.125-.14-.125-.078 0-.11.062-.125.14C3.531-.14 2.625-.14 2.531-.14c-.5 0-.89-.296-1.125-.671-.297-.47-.297-1.125-.297-1.485h2.782c.218 0 .25 0 .25-.219 0-.984-.547-1.953-1.782-1.953-1.156 0-2.078 1.032-2.078 2.282C.281-.86 1.328.108 2.47.108 3.688.11 4.14-1 4.14-1.187Zm-.656-1.329H1.11C1.172-4 2.016-4.25 2.36-4.25c1.016 0 1.125 1.344 1.125 1.734Zm0 0"/><path id="i" d="M5.328 0v-.312c-.687 0-.766-.063-.766-.563v-3.531l-1.468.11v.312c.687 0 .781.062.781.562v1.766c0 .875-.484 1.547-1.219 1.547-.828 0-.875-.47-.875-.985v-3.312l-1.468.11v.312c.78 0 .78.03.78.906v1.5c0 .781 0 1.687 1.516 1.687.563 0 1-.28 1.282-.89v.89Zm0 0"/><path id="j" d="M5.14 0v-.312c-.53 0-.718-.016-.937-.313L2.86-2.344c.297-.375.672-.86.922-1.125.313-.36.719-.515 1.188-.515v-.313c-.266.016-.563.031-.828.031-.297 0-.828-.015-.953-.03v.312c.218.015.296.14.296.312 0 .156-.109.281-.156.344l-.61.781-.78-1.015c-.094-.094-.094-.11-.094-.172 0-.157.156-.25.343-.25v-.313l-1.078.031c-.203 0-.671-.015-.937-.03v.312c.703 0 .703 0 1.172.609l.984 1.281c-.469.594-.469.625-.937 1.188a1.566 1.566 0 0 1-1.266.594V0c.25-.016.563-.031.828-.031L1.891 0v-.312c-.22-.032-.282-.157-.282-.313 0-.219.282-.547.891-1.266l.766 1c.078.11.203.266.203.329 0 .093-.094.25-.36.25V0l1.079-.031c.265 0 .656.015.953.031Zm0 0"/><path id="k" d="M4.813-.89v-.563h-.25v.562c0 .579-.25.641-.36.641-.328 0-.36-.453-.36-.5v-1.984c0-.422 0-.813-.359-1.188-.39-.39-.89-.547-1.375-.547-.812 0-1.5.469-1.5 1.125 0 .297.204.469.454.469a.448.448 0 0 0 .468-.453c0-.125-.062-.453-.515-.453.265-.36.765-.469 1.078-.469.484 0 1.062.39 1.062 1.281v.36c-.515.03-1.219.062-1.844.359-.75.344-1 .86-1 1.297 0 .812.97 1.062 1.594 1.062.672 0 1.125-.406 1.313-.859.047.39.312.813.781.813.203 0 .813-.141.813-.954Zm-1.657-.5c0 .937-.719 1.28-1.172 1.28-.484 0-.89-.343-.89-.843 0-.547.406-1.375 2.062-1.438Zm0 0"/><path id="l" d="M3.625-3.797c0-.312-.312-.61-.734-.61-.735 0-1.094.673-1.22 1.095v-1.094l-1.39.11v.312c.703 0 .782.062.782.562V-.75c0 .438-.11.438-.782.438V0l1.14-.031c.391 0 .86 0 1.267.031v-.312h-.22c-.734 0-.75-.11-.75-.47v-1.53c0-.985.423-1.876 1.173-1.876.062 0 .093 0 .109.016-.031 0-.234.125-.234.39 0 .266.218.423.437.423a.421.421 0 0 0 .422-.438Zm0 0"/><path id="m" d="M4.14-1.187c0-.094-.109-.094-.14-.094-.078 0-.11.031-.125.093C3.594-.265 2.938-.14 2.578-.14c-.531 0-1.406-.421-1.406-2.03 0-1.626.812-2.048 1.344-2.048.093 0 .718.016 1.062.375-.406.031-.469.328-.469.453 0 .266.188.454.454.454.265 0 .468-.157.468-.47 0-.671-.765-1.062-1.531-1.062C1.25-4.469.344-3.39.344-2.156c0 1.281.984 2.265 2.14 2.265 1.329 0 1.657-1.203 1.657-1.296Zm0 0"/><path id="n" d="M3.594-1.281c0-.516-.297-.828-.422-.938-.328-.328-.719-.406-1.14-.484-.563-.11-1.22-.235-1.22-.813 0-.359.25-.765 1.11-.765 1.094 0 1.156.906 1.172 1.203 0 .094.11.094.11.094.14 0 .14-.047.14-.235v-1.015c0-.157 0-.235-.11-.235-.046 0-.078 0-.203.125-.031.032-.125.125-.172.157-.375-.282-.78-.282-.937-.282-1.219 0-1.594.672-1.594 1.235 0 .343.156.625.422.843.328.25.61.313 1.328.454.219.046 1.031.203 1.031.921 0 .5-.343.907-1.125.907-.843 0-1.203-.563-1.39-1.422-.031-.125-.031-.157-.14-.157-.126 0-.126.063-.126.235v1.328c0 .172 0 .234.11.234C.484.11.5.094.688-.094.703-.109.703-.125.89-.312c.437.406.89.421 1.093.421 1.141 0 1.61-.671 1.61-1.39Zm0 0"/><path id="o" d="M2.547 0v-.312c-.672 0-.781 0-.781-.438v-6.172l-1.438.11v.312c.703 0 .781.063.781.563V-.75c0 .438-.109.438-.78.438V0l1.109-.031Zm0 0"/><path id="p" d="M1.906-3.766a.524.524 0 1 0-1.047 0c0 .282.235.532.532.532.28 0 .515-.25.515-.532Zm0 3.235a.534.534 0 0 0-.515-.531.537.537 0 0 0-.532.53.524.524 0 1 0 1.047 0Zm0 0"/><path id="q" d="M3.313-1.234v-.563h-.25v.547c0 .734-.297 1.11-.672 1.11-.672 0-.672-.907-.672-1.079v-2.765h1.437v-.313H1.72v-1.828h-.25c0 .813-.297 1.875-1.281 1.922v.219h.843v2.75c0 1.218.938 1.343 1.297 1.343.703 0 .985-.703.985-1.343Zm0 0"/><clipPath id="a"><path d="M22 50h146v91.11H22Zm0 0"/></clipPath><clipPath id="f"><path d="M287 26h25.07v18H287Zm0 0"/></clipPath></defs><path fill="none" stroke="#000" stroke-miterlimit="10" stroke-width=".399" d="M126.84 70.332c0-31.309-25.383-56.691-56.695-56.691-31.313 0-56.696 25.382-56.696 56.691 0 31.313 25.383 56.695 56.696 56.695 31.312 0 56.695-25.382 56.695-56.695Zm0 0"/><path fill="none" stroke="red" stroke-miterlimit="10" stroke-width="3.402" d="M14.313 60.488c4.777-27.09 28.32-46.847 55.832-46.847"/><g clip-path="url(#a)"><path fill="none" stroke="#00B200" stroke-miterlimit="10" stroke-width="3.402" d="M70.145 127.027a56.696 56.696 0 0 0 49.097-28.347"/></g><use xlink:href="#b" x="3.32" y="64.056"/><use xlink:href="#c" x="66.618" y="10.121"/><use xlink:href="#d" x="66.548" y="137.571"/><use xlink:href="#e" x="122.762" y="102.083"/><path fill="none" stroke="red" stroke-miterlimit="10" stroke-width=".399" d="M264.32 37.734c1.606-4.414 6.489-6.687 10.899-5.082a8.52 8.52 0 0 1 5.086 5.082"/><g clip-path="url(#f)"><path fill="none" stroke="#00B200" stroke-miterlimit="10" stroke-width=".399" d="M292.95 37.734a8.508 8.508 0 0 1 15.984 0"/></g><use xlink:href="#g" x="171.696" y="45.444"/><use xlink:href="#h" x="177.236" y="45.444"/><use xlink:href="#i" x="181.659" y="45.444"/><use xlink:href="#j" x="187.198" y="45.444"/><use xlink:href="#k" x="195.776" y="45.444"/><use xlink:href="#l" x="200.757" y="45.444"/><use xlink:href="#m" x="204.663" y="45.444"/><use xlink:href="#n" x="209.086" y="45.444"/><use xlink:href="#g" x="216.329" y="45.444"/><use xlink:href="#h" x="221.868" y="45.444"/><use xlink:href="#m" x="229.609" y="45.444"/><use xlink:href="#h" x="234.033" y="45.444"/><use xlink:href="#l" x="238.456" y="45.444"/><use xlink:href="#m" x="242.361" y="45.444"/><use xlink:href="#o" x="246.785" y="45.444"/><use xlink:href="#h" x="249.554" y="45.444"/><use xlink:href="#p" x="257.295" y="45.444"/><g fill="red"><use xlink:href="#b" x="264.488" y="45.444"/><use xlink:href="#c" x="271.96" y="45.444"/></g><use xlink:href="#h" x="282.332" y="45.444"/><use xlink:href="#q" x="286.755" y="45.444"/><g fill="#00B200"><use xlink:href="#d" x="293.948" y="45.444"/><use xlink:href="#e" x="301.141" y="45.444"/></g></svg>