<svg xmlns="http://www.w3.org/2000/svg" xmlns:xlink="http://www.w3.org/1999/xlink" width="113.78" height="113.78"><defs><path id="b" d="m1.11-.969.874-1.203c1.282-1.625 1.782-2.25 1.61-3.234-.203-1.125-1.219-1.766-2.422-1.547a1.839 1.839 0 0 0-1.516 2.11c.094.53.578.452.61.452C.438-4.42.75-4.594.688-5c-.047-.25-.266-.484-.61-.422-.078.016-.094.016-.125.031.11-.671.578-1.125 1.156-1.234.891-.156 1.454.563 1.594 1.375.14.781-.219 1.64-.656 2.344L.53-.484C.453-.36.453-.328.5-.094l3.64-.64-.03-1.75-.235.046c-.016.297 0 .735-.078.922-.063.079-.703.204-.922.235Zm0 0"/><path id="c" d="M.781-2.344C.5-3.938 1.22-4.5 1.75-4.594c.078-.015.703-.11 1.11.188-.391.11-.407.39-.391.515A.441.441 0 0 0 3-3.516c.25-.046.438-.234.375-.546-.11-.657-.937-.907-1.687-.782C.452-4.625-.25-3.406-.032-2.187c.22 1.265 1.36 2.062 2.5 1.859 1.298-.219 1.423-1.469 1.407-1.563-.016-.093-.125-.078-.156-.062-.078 0-.11.047-.11.11C3.5-.892 2.86-.657 2.5-.594 1.984-.5 1.063-.75.781-2.344Zm0 0"/><path id="d" d="m.484-3.562.47 2.64C1.03-.5.921-.484.265-.359l.046.312c.344-.078.844-.187 1.126-.234.234-.047.75-.125 1.093-.156L2.484-.75c-.671.11-.78.125-.859-.297l-.328-1.812c-.172-1.016.437-1.703 1.047-1.813.625-.11.828.406.937.969l.406 2.297c.079.422-.03.437-.687.562l.047.313a29.62 29.62 0 0 1 1.11-.235c.25-.046.765-.125 1.093-.156l-.047-.312c-.656.109-.75.125-.828-.297l-.328-1.813c-.172-1.015.406-1.703 1.031-1.812.625-.11.828.406.938.968l.406 2.297c.078.422-.031.438-.703.563l.047.312a29.62 29.62 0 0 1 1.109-.234c.266-.047.766-.11 1.11-.156l-.048-.313c-.5.094-.75.125-.828-.14L6.781-3.75c-.156-.844-.203-1.125-.578-1.437-.172-.141-.516-.297-1.094-.188-.812.14-1.156.813-1.234 1.219-.297-.844-1.047-.828-1.484-.75-.72.14-1.11.64-1.282 1.297L.922-4.641l-1.36.36.063.312c.688-.125.766-.078.86.406Zm0 0"/><path id="e" d="m-.969-1.11-1.203-.874c-1.625-1.282-2.25-1.782-3.234-1.61-1.125.203-1.766 1.219-1.547 2.422A1.839 1.839 0 0 0-4.843.344c.53-.094.452-.578.452-.61C-4.42-.437-4.594-.75-5-.687c-.25.046-.484.265-.422.609.016.078.016.094.031.125-.671-.11-1.125-.578-1.234-1.156-.156-.891.563-1.453 1.375-1.594.781-.14 1.64.219 2.344.656L-.484-.53c.125.078.156.078.39.031l-.64-3.64-1.75.03.046.235c.297.016.735 0 .922.078.079.063.204.703.235.922Zm0 0"/><path id="f" d="M-2.344-.781C-3.938-.5-4.5-1.22-4.594-1.75c-.015-.078-.11-.703.188-1.11.11.391.39.407.515.391A.441.441 0 0 0-3.516-3c-.046-.25-.234-.437-.546-.375-.657.11-.907.938-.782 1.688C-4.625-.453-3.406.25-2.187.03c1.265-.218 2.062-1.36 1.859-2.5-.219-1.297-1.469-1.422-1.563-1.406-.093.016-.078.125-.062.156 0 .078.047.11.11.11.952.109 1.187.75 1.25 1.109.093.516-.157 1.438-1.75 1.719Zm0 0"/><path id="g" d="m-3.562-.484 2.64-.47c.422-.077.438.032.563.688l.312-.046A24.621 24.621 0 0 1-.28-1.437a13.09 13.09 0 0 1-.156-1.094l-.313.047c.11.672.125.78-.297.859l-1.812.328c-1.016.172-1.703-.437-1.813-1.047-.11-.625.406-.828.969-.937l2.297-.406c.422-.079.437.03.562.687l.313-.047a29.62 29.62 0 0 1-.235-1.11A15.31 15.31 0 0 1-.922-5.25l-.312.047c.109.656.125.75-.297.828l-1.813.328c-1.015.172-1.703-.406-1.812-1.031-.11-.625.406-.828.968-.938l2.297-.406c.422-.078.438.031.563.703l.312-.047a29.62 29.62 0 0 1-.234-1.109c-.047-.266-.11-.766-.156-1.11l-.313.048c.094.5.125.75-.14.828l-1.891.328c-.844.156-1.125.203-1.437.578-.141.172-.297.516-.188 1.094.14.812.813 1.156 1.219 1.234-.844.297-.828 1.047-.75 1.484.14.72.64 1.11 1.297 1.282l-1.032.187.36 1.36.312-.063c-.125-.687-.078-.766.406-.86Zm0 0"/><path id="h" d="m1.39-.531 1.22-.828c1.75-1.094 2.437-1.5 2.609-2.485.203-1.125-.532-2.078-1.735-2.297-1.109-.187-1.984.61-2.14 1.485-.094.531.39.61.422.61.172.03.515-.016.578-.423a.507.507 0 0 0-.422-.61c-.078-.015-.094-.015-.125 0 .328-.609.922-.874 1.5-.765.89.157 1.172 1.032 1.031 1.844-.14.781-.75 1.453-1.406 1.969L.656-.266C.546-.172.546-.14.5.094l3.64.64.563-1.656-.234-.047c-.11.266-.25.703-.39.828-.063.078-.704-.047-.923-.078Zm0 0"/><path id="i" d="M1.531-1.937C1.813-3.532 2.688-3.812 3.22-3.72c.078.016.703.14.984.563-.422-.047-.531.234-.547.36a.441.441 0 0 0 .375.53c.25.047.469-.078.532-.39C4.672-3.312 4-3.844 3.25-3.97 2.016-4.188.938-3.28.719-2.063.5-.796 1.297.345 2.438.547c1.296.219 1.828-.906 1.843-1 .016-.094-.093-.11-.125-.125-.078 0-.11.015-.14.078-.422.86-1.094.875-1.453.813C2.047.219 1.25-.344 1.53-1.937Zm0 0"/><path id="j" d="m1.672-3.187-.469 2.64c-.078.422-.187.406-.844.281L.313.047c.343.047.843.125 1.125.172.234.047.75.156 1.093.219l.047-.313C1.906.015 1.797 0 1.875-.422l.328-1.812c.172-1.016 1-1.453 1.61-1.344.624.11.64.656.53 1.219L3.939-.062c-.079.421-.188.406-.844.28l-.047.313c.344.047.844.125 1.11.172.25.047.765.156 1.093.219l.047-.313C4.64.5 4.547.484 4.625.063l.328-1.813c.172-1.016.969-1.453 1.594-1.344.625.11.64.656.531 1.219L6.672.422c-.078.422-.188.406-.86.281l-.046.313a27.336 27.336 0 0 1 2.219.39l.046-.312c-.5-.094-.75-.125-.703-.422l.328-1.89c.157-.844.203-1.126-.047-1.532-.109-.203-.39-.453-.968-.562-.813-.141-1.375.374-1.578.718.015-.875-.704-1.11-1.141-1.187-.719-.14-1.266.203-1.656.765l.187-1.03-1.39-.141L1-3.875c.688.125.766.203.672.688Zm0 0"/><path id="l" d="m-.531-1.39-.828-1.22c-1.094-1.75-1.5-2.437-2.485-2.609-1.125-.203-2.078.532-2.297 1.735-.187 1.109.61 1.984 1.485 2.14.531.094.61-.39.61-.422.03-.171-.016-.515-.423-.578a.507.507 0 0 0-.61.422c-.015.078-.015.094 0 .125-.609-.328-.874-.922-.765-1.5.157-.89 1.032-1.172 1.844-1.031.781.14 1.453.75 1.969 1.406L-.266-.656c.094.11.125.11.36.156l.64-3.64-1.656-.563-.047.234c.266.11.703.25.828.39.078.063-.047.704-.078.923Zm0 0"/><path id="m" d="M-1.937-1.531C-3.532-1.813-3.812-2.687-3.72-3.22c.016-.078.14-.703.563-.984-.047.422.234.531.36.547a.441.441 0 0 0 .53-.375c.047-.25-.078-.469-.39-.532C-3.312-4.671-3.844-4-3.97-3.25c-.219 1.234.688 2.313 1.906 2.531C-.796-.5.345-1.297.547-2.438c.219-1.296-.906-1.828-1-1.843-.094-.016-.11.093-.125.125 0 .078.015.11.078.14.86.422.875 1.094.813 1.454-.094.515-.657 1.312-2.25 1.03Zm0 0"/><path id="n" d="m-3.187-1.672 2.64.469c.422.078.406.187.281.844l.313.046c.047-.343.125-.843.172-1.124.047-.235.156-.75.219-1.094l-.313-.047c-.11.672-.125.781-.547.703l-1.812-.328c-1.016-.172-1.453-1-1.344-1.61.11-.624.656-.64 1.219-.53l2.297.406c.421.078.406.187.28.843l.313.047c.047-.344.125-.844.172-1.11.047-.25.156-.765.219-1.093l-.313-.047c-.109.656-.125.75-.546.672l-1.813-.328c-1.016-.172-1.453-.969-1.344-1.594.11-.625.656-.64 1.219-.531l2.297.406c.422.078.406.188.281.86l.313.046a27.336 27.336 0 0 1 .39-2.219l-.312-.046c-.094.5-.125.75-.422.703l-1.89-.328c-.844-.157-1.126-.203-1.532.047-.203.109-.453.39-.562.968-.141.813.374 1.375.718 1.579-.875-.016-1.11.703-1.187 1.14-.14.719.203 1.266.765 1.656l-1.03-.187-.141 1.39.312.063c.125-.687.203-.766.688-.672Zm0 0"/><clipPath id="a"><path d="M51 41h62.781v22H51Zm0 0"/></clipPath><clipPath id="k"><path d="M41 51h22v62.781H41Zm0 0"/></clipPath></defs><path fill="none" stroke="#000" stroke-miterlimit="10" stroke-width=".399" d="M113.586 56.887C113.586 25.578 88.203.195 56.89.195 25.582.195.199 25.578.199 56.887c0 31.312 25.383 56.695 56.692 56.695 31.312 0 56.695-25.383 56.695-56.695Zm0 0"/><g clip-path="url(#a)"><path fill="none" stroke="red" stroke-miterlimit="10" stroke-width=".399" d="m56.89 56.887 55.837-9.844"/></g><use xlink:href="#b" x="74.658" y="50.181" fill="red"/><g fill="red"><use xlink:href="#c" x="81.193" y="49.029"/><use xlink:href="#d" x="85.549" y="48.261"/></g><path fill="none" stroke="red" stroke-miterlimit="10" stroke-width=".399" d="M56.89 56.887 47.048 1.055"/><use xlink:href="#e" x="50.185" y="39.122" fill="red"/><g fill="red"><use xlink:href="#f" x="49.033" y="32.587"/><use xlink:href="#g" x="48.265" y="28.231"/></g><path fill="none" stroke="red" stroke-miterlimit="10" stroke-width=".399" d="M56.89 56.887 1.06 47.043"/><use xlink:href="#h" x="17.711" y="60.073" fill="red"/><g fill="red"><use xlink:href="#i" x="24.245" y="61.225"/><use xlink:href="#j" x="28.601" y="61.993"/></g><g clip-path="url(#k)"><path fill="none" stroke="red" stroke-miterlimit="10" stroke-width=".399" d="m56.89 56.887-9.843 55.836"/></g><use xlink:href="#l" x="60.077" y="96.069" fill="red"/><g fill="red"><use xlink:href="#m" x="61.229" y="89.535"/><use xlink:href="#n" x="61.998" y="85.179"/></g><path stroke="#000" stroke-miterlimit="10" stroke-width=".399" d="M59.727 56.887a2.832 2.832 0 0 0-2.836-2.832 2.835 2.835 0 1 0 2.836 2.832Zm0 0"/></svg>