<svg xmlns="http://www.w3.org/2000/svg" xmlns:xlink="http://www.w3.org/1999/xlink" width="166.38" height="47.82"><defs><path id="a" d="M4.078-2.297H6.86c.141 0 .329 0 .329-.203 0-.187-.188-.187-.329-.187H4.08v-2.797c0-.141 0-.328-.204-.328-.203 0-.203.187-.203.328v2.797H.89c-.141 0-.328 0-.328.187 0 .203.187.203.328.203h2.78V.5c0 .14 0 .328.204.328.203 0 .203-.187.203-.328Zm0 0"/><path id="b" d="M3.297 0v-.25H3.03c-.703 0-.703-.094-.703-.328v-3.86c0-.187 0-.187-.203-.187-.453.438-1.078.438-1.36.438v.25c.157 0 .626 0 1-.188v3.547c0 .234 0 .328-.687.328H.812V0l1.235-.031Zm0 0"/><path id="c" d="M4.563-1.703c0-.813-.641-1.594-1.672-1.813.812-.265 1.39-.953 1.39-1.75 0-.812-.875-1.375-1.828-1.375-1 0-1.765.594-1.765 1.36 0 .328.218.515.515.515.297 0 .5-.218.5-.515 0-.485-.469-.485-.61-.485.298-.5.954-.625 1.313-.625.422 0 .969.22.969 1.11 0 .125-.031.703-.281 1.14-.297.485-.64.516-.89.516a3.29 3.29 0 0 1-.392.031c-.078.016-.14.031-.14.125 0 .11.062.11.234.11h.438c.812 0 1.187.672 1.187 1.656 0 1.36-.687 1.64-1.125 1.64-.437 0-1.187-.171-1.531-.75.344.047.656-.171.656-.546a.537.537 0 0 0-.547-.563c-.25 0-.562.14-.562.578C.422-.437 1.344.22 2.437.22c1.22 0 2.126-.906 2.126-1.922Zm0 0"/><path id="d" d="M2.031-.016c0-.625-.25-1.046-.64-1.046-.36 0-.532.28-.532.53 0 .266.172.532.532.532.14 0 .28-.062.39-.156.016.781-.25 1.39-.687 1.86-.063.062-.078.077-.078.109 0 .078.046.109.093.109.125 0 .922-.781.922-1.938Zm0 0"/><path id="e" d="M4.172 0v-.312h-.313c-.906 0-.921-.11-.921-.47v-5.593c0-.25 0-.266-.235-.266C2.078-6 1.203-6 .891-6v.313c.203 0 .78 0 1.297-.266v5.172c0 .36-.032.469-.922.469H.953V0c.344-.031 1.203-.031 1.61-.031.39 0 1.265 0 1.609.031Zm0 0"/><path id="f" d="M4.469-1.734h-.235C4.172-1.437 4.11-1 4-.844c-.062.078-.719.078-.937.078H1.266l1.062-1.03c1.547-1.376 2.14-1.907 2.14-2.907 0-1.14-.89-1.938-2.109-1.938C1.234-6.64.5-5.719.5-4.828c0 .547.5.547.531.547.172 0 .516-.11.516-.532a.513.513 0 0 0-.531-.515c-.079 0-.094 0-.125.016.218-.657.765-1.016 1.343-1.016.907 0 1.329.812 1.329 1.625 0 .797-.485 1.578-1.047 2.203L.609-.375C.5-.265.5-.235.5 0h3.703Zm0 0"/><path id="g" d="M4.469-2c0-1.187-.813-2.187-1.89-2.187-.47 0-.907.156-1.267.515v-1.953c.204.063.532.125.844.125 1.235 0 1.938-.906 1.938-1.031 0-.063-.032-.11-.11-.11 0 0-.03 0-.078.032a3.22 3.22 0 0 1-1.36.297c-.39 0-.858-.079-1.327-.282-.078-.031-.11-.031-.11-.031C1-6.625 1-6.547 1-6.391v2.954c0 .171 0 .25.14.25.079 0 .094-.016.141-.079.11-.156.469-.703 1.282-.703.515 0 .765.453.843.64.156.376.188.75.188 1.25 0 .36 0 .954-.25 1.376-.235.39-.61.64-1.063.64-.719 0-1.297-.53-1.469-1.109.032 0 .063.016.172.016.329 0 .5-.25.5-.485 0-.25-.171-.5-.5-.5-.14 0-.484.079-.484.532C.5-.75 1.188.219 2.297.219 3.453.219 4.469-.734 4.469-2Zm0 0"/><path id="h" d="M4.563-3.281c0-2.688-1.157-3.36-2.047-3.36-.547 0-1.032.188-1.453.625C.64-5.562.422-5.14.422-4.39c0 1.235.875 2.22 1.984 2.22.61 0 1.016-.423 1.25-1v.327c0 2.328-1.031 2.782-1.61 2.782-.171 0-.718-.016-.983-.36.437 0 .515-.281.515-.453 0-.312-.234-.453-.453-.453-.156 0-.453.078-.453.469 0 .672.531 1.078 1.375 1.078 1.297 0 2.516-1.36 2.516-3.5Zm-.922-.922c0 .828-.344 1.797-1.22 1.797-.155 0-.624 0-.921-.625-.187-.375-.187-.86-.187-1.36 0-.53 0-1 .218-1.375.266-.5.64-.625.985-.625.468 0 .797.344.968.782.11.328.157.953.157 1.406Zm0 0"/><path id="i" d="M4.578-3.187c0-.797-.047-1.594-.39-2.329C3.734-6.484 2.906-6.64 2.5-6.64c-.61 0-1.328.266-1.75 1.188-.312.687-.36 1.469-.36 2.266 0 .75.032 1.64.454 2.406a1.83 1.83 0 0 0 1.64 1c.532 0 1.297-.203 1.735-1.156.312-.688.36-1.47.36-2.25Zm-.812-.126c0 .75 0 1.422-.11 2.063C3.5-.297 2.937 0 2.484 0c-.39 0-.984-.25-1.156-1.203-.11-.594-.11-1.516-.11-2.11 0-.64 0-1.296.079-1.828.187-1.187.937-1.28 1.187-1.28.329 0 .985.187 1.172 1.171.11.563.11 1.313.11 1.938Zm0 0"/><path id="k" d="M4.688-1.64v-.313h-.985v-4.531c0-.203 0-.266-.172-.266-.078 0-.11 0-.187.125L.28-1.953v.312h2.657v.86c0 .36-.032.469-.766.469h-.203V0c.406-.031.922-.031 1.344-.031.421 0 .937 0 1.359.031v-.312h-.219c-.734 0-.75-.11-.75-.47v-.859Zm-1.704-.313H.563l2.421-3.719Zm0 0"/><path id="l" d="M4.828-6.422H2.406c-1.203 0-1.234-.125-1.265-.312H.89L.563-4.687h.25c.03-.157.109-.782.25-.907.062-.062.843-.062.968-.062h2.063l-1.11 1.578C2.078-2.734 1.75-1.344 1.75-.328c0 .094 0 .547.469.547.453 0 .453-.453.453-.547v-.516c0-.547.031-1.094.11-1.625.046-.234.171-1.094.624-1.703L4.75-6.078c.078-.11.078-.125.078-.344Zm0 0"/><path id="m" d="M4.563-1.672c0-.36-.11-.812-.5-1.234-.188-.203-.344-.297-.985-.703.719-.375 1.203-.891 1.203-1.547 0-.922-.875-1.485-1.781-1.485-1 0-1.812.735-1.812 1.672 0 .172.015.625.437 1.094.11.11.484.36.734.531C1.281-3.047.422-2.5.422-1.5.422-.453 1.438.219 2.484.219c1.125 0 2.079-.828 2.079-1.89Zm-.72-3.484c0 .578-.39 1.047-.984 1.39l-1.234-.796c-.453-.297-.5-.625-.5-.797 0-.61.656-1.032 1.36-1.032.718 0 1.359.516 1.359 1.235Zm.22 3.843c0 .735-.75 1.25-1.563 1.25C1.64-.062.922-.671.922-1.5c0-.578.312-1.219 1.156-1.687l1.235.78c.28.188.75.485.75 1.095Zm0 0"/><path id="n" d="M4.563-2.031c0-1.266-.891-2.219-2-2.219-.672 0-1.047.5-1.25.984v-.25c0-2.515 1.234-2.875 1.75-2.875.234 0 .656.063.874.407-.156 0-.546 0-.546.437 0 .313.234.469.453.469.156 0 .469-.094.469-.484 0-.594-.438-1.079-1.266-1.079C1.766-6.64.422-5.359.422-3.156.422-.484 1.578.219 2.5.219c1.11 0 2.063-.938 2.063-2.25Zm-.907-.016c0 .485 0 .985-.172 1.344-.296.594-.75.64-.984.64-.625 0-.922-.593-.984-.75-.188-.468-.188-1.265-.188-1.437 0-.781.328-1.781 1.219-1.781.172 0 .625 0 .937.625.172.36.172.875.172 1.36Zm0 0"/><clipPath id="j"><path d="M106 35h60.379v1H106Zm0 0"/></clipPath></defs><use xlink:href="#a" y="26.4"/><path fill="none" stroke="#000" stroke-miterlimit="10" stroke-width=".399" d="M0 35.367h42.938"/><use xlink:href="#b" x="10.898" y="8.468"/><use xlink:href="#c" x="10.391" y="20.423"/><use xlink:href="#d" x="15.781" y="20.423"/><use xlink:href="#e" x="18.979" y="20.423"/><use xlink:href="#f" x="27.567" y="20.423"/><use xlink:href="#c" x="36.154" y="20.423"/><use xlink:href="#g" x="10.391" y="32.378"/><use xlink:href="#d" x="15.781" y="32.378"/><use xlink:href="#h" x="18.979" y="32.378"/><use xlink:href="#c" x="27.567" y="32.378"/><use xlink:href="#h" x="10.391" y="44.333"/><use xlink:href="#d" x="15.781" y="44.333"/><use xlink:href="#i" x="18.979" y="44.333"/><use xlink:href="#g" x="27.567" y="44.333"/><use xlink:href="#c" x="36.154" y="44.333"/><use xlink:href="#a" x="106.267" y="26.4"/><g clip-path="url(#j)"><path fill="none" stroke="#000" stroke-miterlimit="10" stroke-width=".399" d="M106.266 35.367h60.117"/></g><use xlink:href="#b" x="117.165" y="8.468"/><use xlink:href="#b" x="142.928" y="8.468"/><use xlink:href="#e" x="116.658" y="20.423"/><use xlink:href="#h" x="125.236" y="20.423"/><use xlink:href="#f" x="133.834" y="20.423"/><use xlink:href="#d" x="139.233" y="20.423"/><use xlink:href="#k" x="142.421" y="20.423"/><use xlink:href="#l" x="151.009" y="20.423"/><use xlink:href="#h" x="159.597" y="20.423"/><use xlink:href="#h" x="125.246" y="32.378"/><use xlink:href="#f" x="133.824" y="32.378"/><use xlink:href="#d" x="139.233" y="32.378"/><use xlink:href="#c" x="142.421" y="32.378"/><use xlink:href="#h" x="151.009" y="32.378"/><use xlink:href="#f" x="116.658" y="44.333"/><use xlink:href="#m" x="125.236" y="44.333"/><use xlink:href="#k" x="133.834" y="44.333"/><use xlink:href="#d" x="139.233" y="44.333"/><use xlink:href="#m" x="142.421" y="44.333"/><use xlink:href="#n" x="151.009" y="44.333"/><use xlink:href="#h" x="159.597" y="44.333"/></svg>