<svg xmlns="http://www.w3.org/2000/svg" xmlns:xlink="http://www.w3.org/1999/xlink" width="300.87" height="88.83"><defs><path id="a" d="M4.078-2.297H6.86c.141 0 .329 0 .329-.203 0-.187-.188-.187-.329-.187H4.08v-2.797c0-.141 0-.328-.204-.328-.203 0-.203.187-.203.328v2.797H.89c-.141 0-.328 0-.328.187 0 .203.187.203.328.203h2.78V.5c0 .14 0 .328.204.328.203 0 .203-.187.203-.328Zm0 0"/><path id="b" d="M6.844-3.266c.156 0 .343 0 .343-.187 0-.203-.187-.203-.328-.203H.891c-.141 0-.328 0-.328.203 0 .187.187.187.328.187Zm.015 1.938c.141 0 .329 0 .329-.203 0-.188-.188-.188-.344-.188H.89c-.141 0-.328 0-.328.188 0 .203.187.203.328.203Zm0 0"/><path id="d" d="M5.484-8.422c2.204 0 3.172 1.906 3.172 4.11 0 2.968-1.594 4.109-3.031 4.109-1.312 0-3.437-.64-4.11-2.547.126.047.25.047.376.047.593 0 1.03-.39 1.03-1.031 0-.72-.546-1.047-1.03-1.047-.422 0-1.078.203-1.078 1.11C.813-1.392 3.047.39 5.672.39c2.75 0 4.86-2.157 4.86-4.672 0-2.407-1.985-4.14-4.344-4.422 1.89-.39 3.703-2.078 3.703-4.328 0-1.938-1.953-3.344-4.188-3.344-2.266 0-4.234 1.375-4.234 3.36 0 .874.64 1.015.953 1.015.531 0 .969-.312.969-.953 0-.656-.438-.969-.97-.969-.093 0-.218 0-.312.047.72-1.64 2.672-1.937 3.547-1.937.86 0 2.5.421 2.5 2.796 0 .704-.11 1.938-.937 3.032-.75.968-1.594 1.015-2.407 1.093-.125 0-.703.047-.796.047-.172.016-.282.047-.282.219s.032.203.532.203Zm0 0"/><path id="e" d="M9.344-5.75h6.562c.344 0 .766 0 .766-.422 0-.437-.39-.437-.766-.437H9.344v-6.578c0-.344 0-.766-.422-.766-.453 0-.453.39-.453.765v6.579H1.906c-.343 0-.765 0-.765.422 0 .437.39.437.765.437H8.47V.813c0 .359 0 .78.422.78.453 0 .453-.405.453-.78Zm0 0"/><path id="f" d="M8.328-16.031c0-.516-.031-.547-.469-.547L.5-4.86v.64h6.39v2.438c0 .89-.046 1.14-1.78 1.14h-.47V0c.782-.047 2.126-.047 2.97-.047.843 0 2.171 0 2.968.047v-.64h-.469c-1.734 0-1.78-.25-1.78-1.141V-4.22h2.53v-.64H8.33Zm-1.36 1.64v9.532H.985Zm0 0"/><path id="g" d="M15.938-7.953c.374 0 .734 0 .734-.422 0-.453-.422-.453-.844-.453H1.984c-.421 0-.843 0-.843.453 0 .422.375.422.75.422Zm-.11 4.406c.422 0 .844 0 .844-.437 0-.422-.36-.422-.735-.422H1.892c-.375 0-.75 0-.75.422 0 .437.422.437.843.437Zm0 0"/><path id="h" d="M11.172-15.437v-.547H5.359c-2.906 0-2.953-.328-3.062-.797h-.438l-.718 4.64h.453c.062-.468.234-1.734.531-2.203.156-.203 1.984-.203 2.406-.203h5.453l-2.75 4.094C5.406-7.703 4.141-3.984 4.141-.75c0 .297 0 1.14.89 1.14s.89-.843.89-1.156v-1.14c0-4.063.688-6.75 1.829-8.453Zm0 0"/><clipPath id="c"><path d="M221 0h79.871v63H221Zm0 0"/></clipPath></defs><path fill="none" stroke="#000" stroke-miterlimit="10" stroke-width=".399" d="M73.902 28.543c0-15.652-16.5-28.344-36.851-28.344C16.695.2.199 12.891.199 28.543c0 15.656 16.496 28.348 36.852 28.348 20.351 0 36.851-12.692 36.851-28.348Zm0 0"/><use xlink:href="#a" x="89.869" y="31.035"/><path fill="none" stroke="#000" stroke-miterlimit="10" stroke-width=".399" d="M187.29 28.543c0-15.652-16.5-28.344-36.852-28.344-20.352 0-36.852 12.692-36.852 28.344 0 15.656 16.5 28.348 36.852 28.348 20.351 0 36.851-12.692 36.851-28.348Zm0 0"/><use xlink:href="#b" x="203.256" y="30.372"/><g clip-path="url(#c)"><path fill="none" stroke="#000" stroke-miterlimit="10" stroke-width=".399" d="M300.676 28.543c0-15.652-16.5-28.344-36.852-28.344-20.351 0-36.851 12.692-36.851 28.344 0 15.656 16.5 28.348 36.851 28.348 20.352 0 36.852-12.692 36.852-28.348Zm0 0"/></g><path fill="red" d="M39.883 28.543a2.835 2.835 0 1 0-5.666.006 2.835 2.835 0 0 0 5.666-.006ZM54.059 14.371a2.836 2.836 0 1 0-5.672 0 2.836 2.836 0 0 0 5.672 0ZM25.71 14.371a2.835 2.835 0 1 0-5.668 0 2.835 2.835 0 1 0 5.669 0Zm0 0"/><path fill="#0C0" d="M175.95 28.543a2.835 2.835 0 1 0-5.67.006 2.835 2.835 0 0 0 5.67-.006ZM130.594 28.543a2.835 2.835 0 0 0-5.668 0 2.835 2.835 0 1 0 5.668 0ZM167.445 42.719a2.836 2.836 0 0 0-2.836-2.836 2.832 2.832 0 0 0-2.832 2.836 2.832 2.832 0 0 0 2.832 2.836 2.836 2.836 0 0 0 2.836-2.836ZM139.098 42.719a2.835 2.835 0 1 0-5.668 0 2.835 2.835 0 1 0 5.668 0Zm0 0"/><path fill="red" d="M266.66 28.543a2.835 2.835 0 0 0-2.836-2.832 2.835 2.835 0 1 0 2.836 2.832ZM280.832 14.371a2.835 2.835 0 1 0-5.668 0 2.835 2.835 0 1 0 5.668 0ZM252.484 14.371a2.835 2.835 0 1 0-2.832 2.836 2.835 2.835 0 0 0 2.832-2.836Zm0 0"/><path fill="#0C0" d="M289.336 28.543a2.835 2.835 0 0 0-5.668 0 2.835 2.835 0 1 0 5.668 0ZM243.98 28.543a2.834 2.834 0 1 0-5.668.004 2.834 2.834 0 0 0 5.668-.004ZM280.832 42.719a2.835 2.835 0 1 0-5.668 0 2.835 2.835 0 1 0 5.668 0ZM252.484 42.719a2.835 2.835 0 1 0-2.832 2.836 2.835 2.835 0 0 0 2.832-2.836Zm0 0"/><use xlink:href="#d" x="13.319" y="83.936"/><use xlink:href="#e" x="75.088" y="83.936"/><use xlink:href="#f" x="143.327" y="83.936"/><use xlink:href="#g" x="206.485" y="83.936"/><use xlink:href="#h" x="276.087" y="83.936"/></svg>