<svg xmlns="http://www.w3.org/2000/svg" xmlns:xlink="http://www.w3.org/1999/xlink" width="148.83" height="67.87"><defs><path id="a" d="M2.89-3.516c.813-.265 1.391-.953 1.391-1.75 0-.812-.875-1.375-1.828-1.375-1 0-1.765.594-1.765 1.36 0 .328.218.515.515.515.297 0 .5-.218.5-.515 0-.485-.469-.485-.61-.485.298-.5.954-.625 1.313-.625.422 0 .969.22.969 1.11 0 .125-.031.703-.281 1.14-.297.485-.64.516-.89.516a3.29 3.29 0 0 1-.392.031c-.078.016-.14.031-.14.125 0 .11.062.11.234.11h.438c.812 0 1.187.672 1.187 1.656 0 1.36-.687 1.64-1.125 1.64-.437 0-1.187-.171-1.531-.75.344.047.656-.171.656-.546a.537.537 0 0 0-.547-.563c-.25 0-.562.14-.562.578C.422-.437 1.344.22 2.437.22c1.22 0 2.126-.906 2.126-1.922 0-.813-.641-1.594-1.672-1.813Zm0 0"/><path id="b" d="M2.938-1.64v.859c0 .36-.032.469-.766.469h-.203V0c.406-.031.922-.031 1.344-.031.421 0 .937 0 1.359.031v-.312h-.219c-.734 0-.75-.11-.75-.47v-.859h.985v-.312h-.985v-4.531c0-.203 0-.266-.172-.266-.078 0-.11 0-.187.125L.28-1.953v.312Zm.046-.313H.563l2.421-3.719Zm0 0"/><path id="c" d="M6.844-3.266c.156 0 .343 0 .343-.187 0-.203-.187-.203-.328-.203H.891c-.141 0-.328 0-.328.203 0 .187.187.187.328.187Zm.015 1.938c.141 0 .329 0 .329-.203 0-.188-.188-.188-.344-.188H.89c-.141 0-.328 0-.328.188 0 .203.187.203.328.203Zm0 0"/><path id="d" d="M1.313-3.266v-.25c0-2.515 1.234-2.875 1.75-2.875.234 0 .656.063.874.407-.156 0-.546 0-.546.437 0 .313.234.469.453.469.156 0 .469-.094.469-.484 0-.594-.438-1.079-1.266-1.079C1.766-6.64.422-5.359.422-3.156.422-.484 1.578.219 2.5.219c1.11 0 2.063-.938 2.063-2.25 0-1.266-.891-2.219-2-2.219-.672 0-1.047.5-1.25.984ZM2.5-.062c-.625 0-.922-.594-.984-.75-.188-.47-.188-1.266-.188-1.438 0-.781.328-1.781 1.219-1.781.172 0 .625 0 .937.625.172.36.172.875.172 1.36 0 .483 0 .983-.172 1.343-.296.594-.75.64-.984.64Zm0 0"/><path id="e" d="M1.625-4.562c-.453-.297-.5-.625-.5-.797 0-.61.656-1.032 1.36-1.032.718 0 1.359.516 1.359 1.235 0 .578-.39 1.047-.985 1.39Zm1.453.953c.719-.375 1.203-.891 1.203-1.547 0-.922-.875-1.485-1.781-1.485-1 0-1.812.735-1.812 1.672 0 .172.015.625.437 1.094.11.11.484.36.734.531C1.281-3.047.422-2.5.422-1.5.422-.453 1.438.219 2.484.219c1.125 0 2.079-.828 2.079-1.89 0-.36-.11-.813-.5-1.235-.188-.203-.344-.297-.985-.703Zm-1 .422 1.235.78c.28.188.75.485.75 1.095 0 .734-.75 1.25-1.563 1.25C1.64-.062.922-.672.922-1.5c0-.578.312-1.219 1.156-1.687Zm0 0"/><path id="g" d="m1.266-.766 1.062-1.03c1.547-1.376 2.14-1.907 2.14-2.907 0-1.14-.89-1.938-2.109-1.938C1.234-6.64.5-5.719.5-4.828c0 .547.5.547.531.547.172 0 .516-.11.516-.532a.513.513 0 0 0-.531-.515c-.079 0-.094 0-.125.016.218-.657.765-1.016 1.343-1.016.907 0 1.329.812 1.329 1.625 0 .797-.485 1.578-1.047 2.203L.609-.375C.5-.265.5-.235.5 0h3.703l.266-1.734h-.235C4.172-1.437 4.11-1 4-.844c-.062.078-.719.078-.937.078Zm0 0"/><path id="h" d="M4.469-2c0-1.187-.813-2.187-1.89-2.187-.47 0-.907.156-1.267.515v-1.953c.204.063.532.125.844.125 1.235 0 1.938-.906 1.938-1.031 0-.063-.032-.11-.11-.11 0 0-.03 0-.078.032a3.22 3.22 0 0 1-1.36.297c-.39 0-.858-.079-1.327-.282-.078-.031-.094-.031-.11-.031C1-6.625 1-6.547 1-6.391v2.954c0 .171 0 .25.14.25.079 0 .094-.016.141-.079.11-.156.469-.703 1.282-.703.515 0 .765.453.843.64.156.376.188.75.188 1.25 0 .36 0 .954-.25 1.376-.235.39-.61.64-1.063.64-.719 0-1.297-.53-1.469-1.109.032 0 .063.016.172.016.329 0 .5-.25.5-.485 0-.25-.171-.5-.5-.5-.14 0-.484.079-.484.532C.5-.75 1.188.219 2.297.219 3.453.219 4.469-.734 4.469-2Zm0 0"/><path id="i" d="M3.656-3.172v.328c0 2.328-1.031 2.782-1.61 2.782-.171 0-.718-.016-.983-.36.437 0 .515-.281.515-.453 0-.312-.234-.453-.453-.453-.156 0-.453.078-.453.469 0 .672.531 1.078 1.375 1.078 1.297 0 2.516-1.36 2.516-3.5 0-2.688-1.157-3.36-2.047-3.36-.547 0-1.032.188-1.453.625C.64-5.562.422-5.14.422-4.39c0 1.235.875 2.22 1.984 2.22.61 0 1.016-.423 1.25-1Zm-1.234.766c-.156 0-.625 0-.922-.625-.187-.375-.187-.86-.187-1.36 0-.53 0-1 .218-1.375.266-.5.64-.625.985-.625.468 0 .797.344.968.782.11.328.157.953.157 1.406 0 .828-.344 1.797-1.22 1.797Zm0 0"/><path id="j" d="M4.578-3.187c0-.797-.047-1.594-.39-2.329C3.734-6.484 2.906-6.64 2.5-6.64c-.61 0-1.328.266-1.75 1.188-.312.687-.36 1.469-.36 2.266 0 .75.032 1.64.454 2.406a1.83 1.83 0 0 0 1.64 1c.532 0 1.297-.203 1.735-1.156.312-.688.36-1.47.36-2.25ZM2.484 0c-.39 0-.984-.25-1.156-1.203-.11-.594-.11-1.516-.11-2.11 0-.64 0-1.296.079-1.828.187-1.187.937-1.28 1.187-1.28.329 0 .985.187 1.172 1.171.11.563.11 1.313.11 1.938 0 .75 0 1.421-.11 2.062C3.5-.297 2.937 0 2.484 0Zm0 0"/><path id="k" d="M2.938-6.375c0-.25 0-.266-.235-.266C2.078-6 1.203-6 .891-6v.313c.203 0 .78 0 1.297-.266v5.172c0 .36-.032.469-.922.469H.953V0c.344-.031 1.203-.031 1.61-.031.39 0 1.265 0 1.609.031v-.312h-.313c-.906 0-.921-.11-.921-.47Zm0 0"/><path id="f" d="M3.875-2.766 1.891-4.75c-.125-.125-.141-.14-.22-.14a.197.197 0 0 0-.202.202c0 .063.015.079.125.188l2 2-2 2.016c-.11.109-.125.125-.125.187 0 .125.093.203.203.203.078 0 .094-.015.219-.14L3.875-2.22 5.938-.156a.236.236 0 0 0 .14.062c.125 0 .203-.078.203-.203 0-.016 0-.047-.031-.11C6.234-.421 4.656-1.983 4.156-2.5l1.828-1.812c.047-.063.204-.188.25-.25 0-.016.047-.063.047-.125 0-.125-.078-.204-.203-.204-.078 0-.11.032-.219.141Zm0 0"/></defs><use xlink:href="#a" x="4.516" y="30.36"/><path fill="none" stroke="#000" stroke-miterlimit="10" stroke-width=".398" d="M4.516 34.61h4.98"/><use xlink:href="#b" x="4.516" y="43.934"/><use xlink:href="#c" x="16.778" y="37.1"/><use xlink:href="#d" x="31.807" y="30.36"/><path fill="none" stroke="#000" stroke-miterlimit="10" stroke-width=".398" d="M31.809 34.61h4.98"/><use xlink:href="#e" x="31.807" y="43.934"/><path fill="none" stroke="red" stroke-miterlimit="10" stroke-width=".399" d="M8.305 19.762c0-3.13 5.71-5.668 12.758-5.668 7.042 0 12.753 2.539 12.753 5.21"/><path fill="none" stroke="red" stroke-linecap="round" stroke-linejoin="round" stroke-miterlimit="10" stroke-width=".319" d="M35.41 18.11c-.597.1-1.492 1.195-1.594 1.495-.097-.3-.996-1.394-1.593-1.496"/><use xlink:href="#f" x="14.696" y="9.744" fill="red"/><use xlink:href="#g" x="22.444" y="9.744" fill="red"/><path fill="none" stroke="red" stroke-miterlimit="10" stroke-width=".399" d="M8.305 48.11c0 3.132 5.71 5.671 12.758 5.671 7.042 0 12.753-2.539 12.753-5.21"/><path fill="none" stroke="red" stroke-linecap="round" stroke-linejoin="round" stroke-miterlimit="10" stroke-width=".319" d="M32.223 49.766c.597-.102 1.496-1.196 1.593-1.496.102.3.996 1.394 1.594 1.496"/><use xlink:href="#f" x="14.696" y="63.72" fill="red"/><use xlink:href="#g" x="22.444" y="63.72" fill="red"/><use xlink:href="#e" x="103.73" y="30.36"/><use xlink:href="#h" x="108.711" y="30.36"/><path fill="none" stroke="#000" stroke-miterlimit="10" stroke-width=".398" d="M103.73 34.61h9.961"/><use xlink:href="#i" x="103.73" y="43.934"/><use xlink:href="#i" x="108.711" y="43.934"/><use xlink:href="#c" x="117.655" y="37.1"/><use xlink:href="#e" x="129.367" y="30.36"/><use xlink:href="#h" x="134.348" y="30.36"/><use xlink:href="#j" x="139.33" y="30.36"/><path fill="none" stroke="#000" stroke-miterlimit="10" stroke-width=".398" d="M129.367 34.61h14.946"/><use xlink:href="#i" x="129.367" y="43.934"/><use xlink:href="#i" x="134.348" y="43.934"/><use xlink:href="#j" x="139.33" y="43.934"/><path fill="none" stroke="red" stroke-miterlimit="10" stroke-width=".399" d="M107.52 19.762c0-3.13 6.98-5.668 15.59-5.668 8.609 0 15.59 2.539 15.59 5.21"/><path fill="none" stroke="red" stroke-linecap="round" stroke-linejoin="round" stroke-miterlimit="10" stroke-width=".319" d="M140.293 18.11c-.598.1-1.492 1.195-1.594 1.495-.097-.3-.996-1.394-1.594-1.496"/><use xlink:href="#f" x="114.254" y="9.744" fill="red"/><g fill="red"><use xlink:href="#k" x="122.002" y="9.744"/><use xlink:href="#j" x="126.984" y="9.744"/></g><path fill="none" stroke="red" stroke-miterlimit="10" stroke-width=".399" d="M107.52 48.11c0 3.132 6.98 5.671 15.59 5.671 8.609 0 15.59-2.539 15.59-5.21"/><path fill="none" stroke="red" stroke-linecap="round" stroke-linejoin="round" stroke-miterlimit="10" stroke-width=".319" d="M137.105 49.766c.598-.102 1.497-1.196 1.594-1.496.102.3.996 1.394 1.594 1.496"/><use xlink:href="#f" x="114.254" y="63.72" fill="red"/><g fill="red"><use xlink:href="#k" x="122.002" y="63.72"/><use xlink:href="#j" x="126.984" y="63.72"/></g></svg>